<svg id="Layer_1" data-name="Layer 1" xmlns="http://www.w3.org/2000/svg" viewBox="0 0 600 441"><defs><linearGradient id="Namnlös_övertoning" x1="-729.32" y1="-122.87" x2="-626" y2="-122.87" gradientTransform="matrix(.71 .7 .7 -.71 1087.81 695.15)" gradientUnits="userSpaceOnUse"><stop offset="0" stop-color="#4aa69e"/><stop offset=".18" stop-color="#7ec0ba" stop-opacity=".71"/><stop offset=".36" stop-color="#acd6d3" stop-opacity=".46"/><stop offset=".54" stop-color="#d0e8e6" stop-opacity=".26"/><stop offset=".71" stop-color="#eaf5f4" stop-opacity=".12"/><stop offset=".87" stop-color="#fafcfc" stop-opacity=".03"/><stop offset="1" stop-color="#fff" stop-opacity="0"/></linearGradient><linearGradient id="Namnlös_övertoning_2" x1="423.26" y1="317.61" x2="523.84" y2="317.61" gradientTransform="matrix(1 0 0 -1 0 442)" gradientUnits="userSpaceOnUse"><stop offset="0" stop-color="#d859a1" stop-opacity=".6"/><stop offset=".01" stop-color="#d95ca3" stop-opacity=".59"/><stop offset=".14" stop-color="#e48ebf" stop-opacity=".41"/><stop offset=".28" stop-color="#eeb7d6" stop-opacity=".26"/><stop offset=".42" stop-color="#f6d7e8" stop-opacity=".15"/><stop offset=".56" stop-color="#fbedf5" stop-opacity=".06"/><stop offset=".72" stop-color="#fefbfd" stop-opacity=".02"/><stop offset=".91" stop-color="#fff" stop-opacity="0"/></linearGradient><linearGradient id="Namnlös_övertoning_3" x1="421.84" y1="317.61" x2="523.84" y2="317.61" gradientTransform="matrix(1 0 0 -1 0 442)" gradientUnits="userSpaceOnUse"><stop offset="0" stop-color="#d859a1"/><stop offset=".25" stop-color="#d85ba2" stop-opacity=".99"/><stop offset=".38" stop-color="#da61a5" stop-opacity=".95"/><stop offset=".49" stop-color="#dc6bab" stop-opacity=".89"/><stop offset=".57" stop-color="#e07ab3" stop-opacity=".8"/><stop offset=".65" stop-color="#e48dbe" stop-opacity=".69"/><stop offset=".72" stop-color="#eaa4cb" stop-opacity=".55"/><stop offset=".79" stop-color="#f0c0db" stop-opacity=".38"/><stop offset=".85" stop-color="#f8dfed" stop-opacity=".19"/><stop offset=".91" stop-color="#fff" stop-opacity="0"/></linearGradient><style>.cls-1,.cls-10,.cls-13,.cls-6{fill:#fff}.cls-1,.cls-10,.cls-11,.cls-12,.cls-13,.cls-3,.cls-7,.cls-9{stroke:#626c87;stroke-miterlimit:10}.cls-1{stroke-width:2.33px}.cls-2{fill:#626c87}.cls-11,.cls-12,.cls-3,.cls-7,.cls-8,.cls-9{fill:none}.cls-3{stroke-width:2.06px}.cls-7{stroke-width:3.02px}.cls-9{stroke-width:2px}.cls-10,.cls-11{stroke-width:2.12px}.cls-12,.cls-13{stroke-width:2.84px}.cls-16{isolation:isolate}</style></defs><path class="cls-1" d="M92.42 274.34H37.69c-5.12 0-9.31-3.86-9.31-8.59v-72.16h65.31"/><path class="cls-1" d="M92.42 274.34h57.27c5.12 0 9.31-3.86 9.31-8.59v-72.16H93.69M93.69 193.59H159V184a8.61 8.61 0 00-8.59-8.59H37a8.61 8.61 0 00-8.62 8.59v9.55h65.31"/><circle class="cls-2" cx="38.59" cy="184.52" r="3.2"/><circle class="cls-2" cx="51.99" cy="184.52" r="3.2"/><circle class="cls-2" cx="65.4" cy="184.52" r="3.2"/><path class="cls-3" d="M69.79 153.59v-4.14a8.27 8.27 0 00-8.27-8.27H45a8.27 8.27 0 00-8.27 8.27v4.14"/><circle cx="53.25" cy="124.64" r="8.27" stroke-width="2.06" stroke-miterlimit="10" stroke="#626c87" fill="#fff"/><path class="cls-3" d="M52.34 103a28.15 28.15 0 11-28.15 28.15"/><path d="M547.89 332.05l18.57-.09-.06-13.23a13.66 13.66 0 01-.13-26.66l-.06-13.23-90.83.44a5.29 5.29 0 00-5.25 5.3l.21 42.56a5.29 5.29 0 005.3 5.25l80.86-.39" fill="url(#Namnlös_övertoning)"/><path class="cls-6" d="M558.6 321.24l18.57-.09-.06-13.23a13.66 13.66 0 01-.13-26.66l-.06-13.26-90.83.44a5.29 5.29 0 00-5.25 5.3l.21 42.56a5.29 5.29 0 005.3 5.25l80.86-.39"/><path class="cls-7" d="M558.6 321.24l18.57-.09-.06-13.23a13.66 13.66 0 01-.13-26.66l-.06-13.26-90.83.44a5.29 5.29 0 00-5.25 5.3l.21 42.56a5.29 5.29 0 005.3 5.25l80.86-.39"/><circle class="cls-2" cx="551" cy="284.19" r="2.4" transform="rotate(-.28 551.804 283.736)"/><circle class="cls-2" cx="551.05" cy="294.35" r="2.4" transform="rotate(-.28 551.779 293.967)"/><circle class="cls-2" cx="551.1" cy="304.52" r="2.4" transform="rotate(-.28 551.754 304.199)"/><path class="cls-7" d="M539.17 332.97l16.45-.08M469.26 285.47l.21 42.56a5.29 5.29 0 005.3 5.25l64.4-.31M445 299.71h-37.27A12.76 12.76 0 01395 287v-11.43"/><path class="cls-7" d="M429.72 286.65l7.68 6.53 7.69 6.53-7.69 6.53-7.68 6.53M415.47 260.32v-20.23A12.12 12.12 0 01427.56 228h84.33A12.12 12.12 0 01524 240.09v11.08M524 350.41a12.12 12.12 0 01-12.09 12.09h-84.35a12.12 12.12 0 01-12.09-12.09V335.1"/><circle class="cls-2" cx="430.94" cy="241.8" r="3.23"/><circle class="cls-2" cx="445.09" cy="241.8" r="3.23"/><path class="cls-8" d="M341 251l-168.89-.01"/><path class="cls-9" d="M338.83 251l-166.72-.01"/><path class="cls-2" d="M332.2 242.82l-1.36 1.46 7.22 6.72-7.22 6.71 1.36 1.47L341 251l-8.8-8.18z"/><path class="cls-8" d="M163.11 331.78l39.34-39.33"/><path class="cls-9" d="M164.64 330.25l37.81-37.8"/><path class="cls-2" d="M175.11 331.35l-.07-2-9.85.36.36-9.86-2-.07-.44 12 12-.43z"/><path class="cls-10" d="M46.81 319.53h-14.1a4.72 4.72 0 00-4.71 4.71v14.45a4.72 4.72 0 004.71 4.71h121.58a4.72 4.72 0 004.71-4.71v-14.45a4.72 4.72 0 00-4.71-4.71H46.81"/><circle class="cls-2" cx="146.32" cy="331.21" r="2.59"/><path class="cls-11" d="M36.33 326.09v10.74M41.57 326.09v10.74M46.81 326.09v10.74M52.04 326.09v10.74"/><path class="cls-10" d="M46.81 343h-14.1a4.72 4.72 0 00-4.71 4.73v14.45a4.72 4.72 0 004.71 4.71h121.58a4.72 4.72 0 004.71-4.71v-14.45a4.72 4.72 0 00-4.71-4.71H46.81"/><circle class="cls-2" cx="146.32" cy="354.71" r="2.59"/><path class="cls-11" d="M36.33 349.58v10.74M41.57 349.58v10.74M46.81 349.58v10.74M52.04 349.58v10.74"/><path class="cls-10" d="M46.81 366.51h-14.1a4.72 4.72 0 00-4.71 4.71v14.45a4.72 4.72 0 004.71 4.71h121.58a4.72 4.72 0 004.71-4.71v-14.45a4.72 4.72 0 00-4.71-4.71H46.81"/><circle class="cls-2" cx="146.32" cy="378.2" r="2.59"/><path class="cls-11" d="M36.33 373.08v10.74M41.57 373.08v10.74M46.81 373.08v10.74M52.04 373.08v10.74"/><path class="cls-9" d="M202.11 292.78L342 293"/><path class="cls-12" d="M537.84 123.97V81.9h-68.05M469.78 166.04h28.88M469.78 81.9h-68v75.2a9 9 0 008.95 9h59.11"/><path class="cls-13" d="M469.78 81.9h68.06v-10a9 9 0 00-9-8.9H410.68a9 9 0 00-8.95 9v10h68.06"/><circle class="cls-2" cx="412.65" cy="72.44" r="3.33"/><circle class="cls-2" cx="426.62" cy="72.44" r="3.33"/><circle class="cls-2" cx="440.59" cy="72.44" r="3.33"/><path d="M510.57 141.62h-80.31a7 7 0 01-7-7v-20.46a7 7 0 017-7h93.58" fill="url(#Namnlös_övertoning_2)" stroke="url(#Namnlös_övertoning_3)" stroke-width="2.84" stroke-miterlimit="10"/><path stroke="#d859a1" stroke-width="2.84" fill="none" stroke-miterlimit="10" d="M437.26 115.44v17.74"/><circle class="cls-13" cx="534.93" cy="157.93" r="25.07"/><rect class="cls-13" x="524.44" y="156.76" width="20.99" height="12.83" rx="2.33"/><path class="cls-12" d="M529.1 156.76v-4.66a5.83 5.83 0 0111.66 0v4.66"/><circle class="cls-9" cx="385" cy="192" r="13"/><circle class="cls-2" cx="254.5" cy="225.5" r="17.5"/><g class="cls-16"><path class="cls-6" d="M256.28 231h-1.42v-9a7.05 7.05 0 01-1.34 1 9.59 9.59 0 01-1.49.73v-1.37a8.4 8.4 0 002.08-1.36 5.41 5.41 0 001.26-1.54h.91zM260.71 231v-1.61h1.62V231z"/></g><circle class="cls-2" cx="385.5" cy="192.5" r="17.5"/><g class="cls-16"><path class="cls-6" d="M382 194.93l1.42-.19a3.15 3.15 0 00.83 1.74 2.07 2.07 0 001.43.53 2.31 2.31 0 001.69-.69 2.36 2.36 0 00.69-1.72 2.19 2.19 0 00-2.26-2.25 4.26 4.26 0 00-1 .16l.15-1.24h.23a2.93 2.93 0 001.63-.47 1.61 1.61 0 00.73-1.46 1.73 1.73 0 00-.53-1.29 2.08 2.08 0 00-2.74 0 2.53 2.53 0 00-.71 1.56l-1.42-.26a3.67 3.67 0 011.18-2.21 3.44 3.44 0 012.29-.78 3.79 3.79 0 011.75.41 2.94 2.94 0 011.21 1.1 2.89 2.89 0 01.43 1.49 2.45 2.45 0 01-.41 1.37 2.71 2.71 0 01-1.19 1 2.73 2.73 0 011.6 1 3.05 3.05 0 01.56 1.87 3.38 3.38 0 01-1.1 2.56 3.91 3.91 0 01-2.79 1.06 3.67 3.67 0 01-2.53-.91 3.5 3.5 0 01-1.14-2.38zM391.71 198v-1.62h1.62V198z"/></g><circle class="cls-2" cx="254.5" cy="315.5" r="17.5"/><g class="cls-16"><path class="cls-6" d="M255.49 321v-2.77h-5v-1.3l5.27-7.48h1.16v7.48h1.56v1.3h-1.56V321zm0-4.07v-5.2l-3.62 5.2zM260.71 321v-1.61h1.62V321z"/></g><path d="M362.5 285.49V158.23c0-9.79 5.92-17.73 13.23-17.73h6.77" stroke-width="2.32" fill="none" stroke-miterlimit="10" stroke="#626c87"/><path class="cls-2" d="M371.97 277.81l-1.69-1.57-7.78 8.36-7.77-8.36-1.7 1.57L362.5 288l9.47-10.19z"/><path class="cls-9" d="M373.33 124.5h-12.8a14 14 0 00-14 14v112"/><path class="cls-2" d="M366.7 116.32l-1.36 1.46 7.22 6.72-7.22 6.71 1.36 1.47 8.8-8.18-8.8-8.18z"/><circle class="cls-9" cx="322" cy="156" r="13"/><circle class="cls-2" cx="322.5" cy="156.5" r="17.5"/><g class="cls-16"><path class="cls-6" d="M326.39 160.62V162h-7.63a2.57 2.57 0 01.16-1 5.37 5.37 0 01.94-1.53 14.06 14.06 0 011.85-1.75 15.63 15.63 0 002.55-2.45 2.93 2.93 0 00.66-1.7 1.91 1.91 0 00-.6-1.43 2.45 2.45 0 00-3.21 0 2.35 2.35 0 00-.63 1.7l-1.45-.15a3.59 3.59 0 011.12-2.49 3.85 3.85 0 012.63-.85 3.68 3.68 0 012.63.92 3 3 0 011 2.29 3.45 3.45 0 01-.28 1.36 5.21 5.21 0 01-1 1.41 23.1 23.1 0 01-2.18 2c-.85.72-1.4 1.2-1.64 1.46a4.6 4.6 0 00-.6.77zM328.71 162v-1.62h1.62V162z"/></g><g class="cls-16"><path class="cls-2" d="M84.41 298.62a3.13 3.13 0 01-1 2.46 3.82 3.82 0 01-2.73.94 3.68 3.68 0 01-2.83-1.17 4.22 4.22 0 01-1.1-3V296a4.28 4.28 0 011.08-3 3.64 3.64 0 012.8-1.18 4 4 0 012.78.93 3.12 3.12 0 011 2.49h-1.6a1.93 1.93 0 00-2.15-2.12A1.9 1.9 0 0079 294a3.36 3.36 0 00-.59 2v1.91a3.23 3.23 0 00.61 2 2 2 0 001.65.81 2 2 0 001.56-.55 2.14 2.14 0 00.54-1.56zM87.61 301.92h-1.67v-10.66h1.67zM91.24 292.71h-1.67v-1.45h1.67zm0 9.21h-1.67v-7.4h1.67zM96.27 302.06a3.23 3.23 0 01-2.51-1 3.81 3.81 0 01-.93-2.65v-.27a4 4 0 01.92-2.68 3.23 3.23 0 014.62-.15 3.58 3.58 0 01.8 2.43v1h-4.62a2.3 2.3 0 00.51 1.44 1.66 1.66 0 001.32.56 3.55 3.55 0 001.15-.16 3.68 3.68 0 00.92-.48l.53 1.09a3.28 3.28 0 01-1.1.63 4.63 4.63 0 01-1.61.24zm-.19-6.34a1.26 1.26 0 00-1 .49 2.48 2.48 0 00-.49 1.24h2.93v-.17a1.78 1.78 0 00-.36-1.15 1.32 1.32 0 00-1.08-.41zM102 294.52l.09 1.07a2.66 2.66 0 01.92-.88 2.34 2.34 0 011.24-.32 2.31 2.31 0 011.8.7 3.12 3.12 0 01.65 2.18v4.65H105v-4.63a1.66 1.66 0 00-.34-1.19 1.39 1.39 0 00-1-.35 1.81 1.81 0 00-.87.21 2 2 0 00-.63.59v5.37h-1.66v-7.4zM110.5 292.73v1.79h1.33v1.23h-1.33v4.09a.87.87 0 00.2.65.72.72 0 00.52.2h.27l.25-.07.17 1.22a2.09 2.09 0 01-.5.18 3.08 3.08 0 01-.61.06 2 2 0 01-1.44-.53 2.39 2.39 0 01-.51-1.69v-4.09h-1.13v-1.23h1.13v-1.79z"/></g><g class="cls-16"><path class="cls-2" d="M404.81 38.6h-3.9l-.79 2.32h-1.68l3.66-10h1.57l3.62 10h-1.69zm-3.42-1.39h2.95L402.9 33z"/></g><g class="cls-16"><path class="cls-2" d="M413.05 39.84a2.56 2.56 0 01-.88.91 2.63 2.63 0 01-3.09-.45 3.45 3.45 0 01-.67-2.35v-4.43h1.66V38a2.21 2.21 0 00.31 1.36 1.15 1.15 0 00.95.39 2.07 2.07 0 001-.22 1.59 1.59 0 00.64-.62v-5.39h1.66v7.4h-1.45zM418.44 31.73v1.79h1.33v1.23h-1.33v4.09a.83.83 0 00.2.65.72.72 0 00.52.2h.27l.25-.07.17 1.22a2.09 2.09 0 01-.5.18 3.08 3.08 0 01-.61.06 2 2 0 01-1.44-.53 2.39 2.39 0 01-.51-1.69v-4.11h-1.13v-1.23h1.13v-1.79zM422.88 34.48a2.77 2.77 0 01.9-.81 2.44 2.44 0 011.17-.28 2.31 2.31 0 011.84.74 3.35 3.35 0 01.66 2.29v4.5h-1.66V36.4a1.88 1.88 0 00-.35-1.26 1.33 1.33 0 00-1.05-.39 1.8 1.8 0 00-.87.2 1.72 1.72 0 00-.64.56v5.41h-1.66V30.26h1.66zM432.34 41.06a3.21 3.21 0 01-2.5-1 3.81 3.81 0 01-.93-2.65v-.27a3.91 3.91 0 01.92-2.68 3.23 3.23 0 014.62-.15 3.57 3.57 0 01.79 2.43v1h-4.61a2.31 2.31 0 00.52 1.44 1.66 1.66 0 001.32.56 3.48 3.48 0 001.14-.16 3.74 3.74 0 00.93-.48l.53 1.09a3.44 3.44 0 01-1.11.63 4.6 4.6 0 01-1.62.24zm-.19-6.34a1.23 1.23 0 00-1 .49 2.39 2.39 0 00-.49 1.24h2.93v-.17a1.83 1.83 0 00-.35-1.15 1.34 1.34 0 00-1.09-.41zM438.09 33.52l.09 1.07a2.64 2.64 0 01.91-.88 2.36 2.36 0 011.24-.32 2.34 2.34 0 011.81.7 3.12 3.12 0 01.64 2.18v4.65h-1.66v-4.63a1.66 1.66 0 00-.34-1.19 1.39 1.39 0 00-1-.35 1.75 1.75 0 00-.87.21 1.78 1.78 0 00-.63.59v5.37h-1.66v-7.4zM446.58 31.73v1.79h1.32v1.23h-1.32v4.09a.87.87 0 00.19.65.74.74 0 00.53.2h.27l.24-.07.18 1.22a2.09 2.09 0 01-.5.18 3.08 3.08 0 01-.61.06 2 2 0 01-1.44-.53 2.34 2.34 0 01-.52-1.69v-4.11h-1.13v-1.23h1.13v-1.79zM451.15 31.71h-1.66v-1.45h1.66zm0 9.21h-1.66v-7.4h1.66zM456.06 39.73a1.52 1.52 0 001-.36 1.1 1.1 0 00.42-.89H459a2.15 2.15 0 01-.84 1.79 3.16 3.16 0 01-2.12.75 3.06 3.06 0 01-2.5-1.05 4 4 0 01-.87-2.67v-.23a4.06 4.06 0 01.87-2.67 3.06 3.06 0 012.5-1 3.1 3.1 0 012.17.77 2.51 2.51 0 01.8 2h-1.51a1.5 1.5 0 00-.4-1 1.58 1.58 0 00-2.37.26 3.37 3.37 0 00-.39 1.7v.24a3.39 3.39 0 00.39 1.72 1.4 1.4 0 001.33.64zM464.81 40.92c-.06-.19-.11-.37-.15-.55a4.51 4.51 0 01-.08-.53 2.88 2.88 0 01-.9.87 2.21 2.21 0 01-1.24.35 2.45 2.45 0 01-1.78-.59 2.18 2.18 0 01-.62-1.64 2 2 0 01.85-1.67 4.1 4.1 0 012.39-.59h1.29v-.65a1.23 1.23 0 00-.34-.91 1.63 1.63 0 00-1.88-.06.86.86 0 00-.34.71h-1.6a1.8 1.8 0 01.78-1.56 3.3 3.3 0 012.16-.67 3.22 3.22 0 012.09.65 2.34 2.34 0 01.79 1.89v3.29a6.29 6.29 0 00.06.88 4.67 4.67 0 00.2.82zm-2-1.19a2.06 2.06 0 001.13-.31 1.57 1.57 0 00.67-.72v-1.1h-1.32a1.69 1.69 0 00-1.14.36 1.1 1.1 0 00-.41.85.88.88 0 00.28.67 1.14 1.14 0 00.75.25zM470 31.73v1.79h1.32v1.23H470v4.09a.83.83 0 00.2.65.7.7 0 00.52.2h.27l.24-.07.18 1.22a2.09 2.09 0 01-.5.18 3.08 3.08 0 01-.61.06 2 2 0 01-1.44-.53 2.39 2.39 0 01-.52-1.69v-4.11h-1.13v-1.23h1.13v-1.79zM474.61 31.71H473v-1.45h1.66zm0 9.21H473v-7.4h1.66zM476.16 37.15a4 4 0 01.9-2.7 3.45 3.45 0 015 0 4 4 0 01.91 2.7v.15A4 4 0 01482 40a3.49 3.49 0 01-5 0 4 4 0 01-.9-2.71zm1.66.14a3.21 3.21 0 00.43 1.76 1.42 1.42 0 001.31.68 1.44 1.44 0 001.3-.68 3.21 3.21 0 00.44-1.76v-.14a3.16 3.16 0 00-.44-1.74 1.45 1.45 0 00-1.31-.69 1.42 1.42 0 00-1.3.69 3.21 3.21 0 00-.43 1.74zM485.9 33.52l.1 1.07a2.55 2.55 0 01.91-.88 2.36 2.36 0 011.24-.32 2.31 2.31 0 011.8.7 3.12 3.12 0 01.65 2.18v4.65h-1.66v-4.63a1.66 1.66 0 00-.35-1.19 1.39 1.39 0 00-1-.35 1.74 1.74 0 00-.86.21 1.78 1.78 0 00-.63.59v5.37h-1.66v-7.4zM501.42 38.36a1.26 1.26 0 00-.46-1 4.42 4.42 0 00-1.63-.71 6.76 6.76 0 01-2.57-1.16 2.3 2.3 0 01-.9-1.89 2.4 2.4 0 011-2 4 4 0 012.56-.78 3.82 3.82 0 012.64.89 2.66 2.66 0 011 2.12h-1.6a1.59 1.59 0 00-.52-1.24 2.09 2.09 0 00-1.48-.47 2.2 2.2 0 00-1.4.39 1.29 1.29 0 00-.49 1 1.13 1.13 0 00.53.94 6.16 6.16 0 001.76.71 5.74 5.74 0 012.44 1.19 2.5 2.5 0 01.83 1.93 2.34 2.34 0 01-1 2 4.32 4.32 0 01-2.62.73 4.55 4.55 0 01-2.73-.83A2.51 2.51 0 01495.6 38h1.6a1.55 1.55 0 00.63 1.35 2.73 2.73 0 001.63.45 2.4 2.4 0 001.44-.37 1.18 1.18 0 00.52-1.07zM507.79 41.06a3.21 3.21 0 01-2.5-1 3.77 3.77 0 01-.94-2.65v-.27a3.92 3.92 0 01.93-2.68 3.22 3.22 0 014.61-.15 3.58 3.58 0 01.8 2.43v1h-4.61a2.31 2.31 0 00.52 1.44 1.64 1.64 0 001.31.56 3.55 3.55 0 001.15-.16 3.74 3.74 0 00.93-.48l.53 1.09a3.44 3.44 0 01-1.11.63 4.6 4.6 0 01-1.62.24zm-.19-6.34a1.23 1.23 0 00-1 .49 2.31 2.31 0 00-.49 1.24H509v-.17a1.78 1.78 0 00-.36-1.15 1.32 1.32 0 00-1.04-.41z"/></g><g class="cls-16"><path class="cls-2" d="M516.21 35h-.71a1.46 1.46 0 00-.81.21 1.24 1.24 0 00-.5.58v5.14h-1.66v-7.4H514l.11 1.08a2.4 2.4 0 01.72-.89 1.67 1.67 0 011-.32 1.27 1.27 0 01.28 0l.24.06z"/></g><g class="cls-16"><path class="cls-2" d="M520.14 38.42l.12.6.13-.6 1.47-4.9h1.72l-2.58 7.4h-1.44l-2.64-7.4h1.71zM526.43 31.71h-1.66v-1.45h1.66zm0 9.21h-1.66v-7.4h1.66zM531.35 39.73a1.51 1.51 0 001-.36 1.1 1.1 0 00.42-.89h1.5a2.19 2.19 0 01-.85 1.79 3.13 3.13 0 01-2.11.75 3.08 3.08 0 01-2.47-1.02 4 4 0 01-.87-2.67v-.23a4.06 4.06 0 01.87-2.67 3.47 3.47 0 014.67-.28 2.51 2.51 0 01.8 2h-1.51a1.46 1.46 0 00-.4-1 1.39 1.39 0 00-1-.42 1.41 1.41 0 00-1.33.68 3.37 3.37 0 00-.39 1.7v.24a3.39 3.39 0 00.39 1.72 1.4 1.4 0 001.28.66zM538.81 41.06a3.21 3.21 0 01-2.5-1 3.77 3.77 0 01-.94-2.65v-.27a3.92 3.92 0 01.93-2.68 3.22 3.22 0 014.61-.15 3.58 3.58 0 01.8 2.43v1h-4.61a2.31 2.31 0 00.52 1.44 1.64 1.64 0 001.31.56 3.55 3.55 0 001.15-.16 3.74 3.74 0 00.93-.48l.53 1.09a3.44 3.44 0 01-1.11.63 4.6 4.6 0 01-1.62.24zm-.19-6.34a1.23 1.23 0 00-1 .49 2.31 2.31 0 00-.49 1.24h2.93v-.17a1.78 1.78 0 00-.36-1.15 1.32 1.32 0 00-1.08-.41z"/></g><g class="cls-16"><g class="cls-16"><path class="cls-2" d="M434.4 389.3h-3v8.62h-1.66v-8.62h-3V388h7.68z"/></g><g class="cls-16"><path class="cls-2" d="M434.16 394.15a4 4 0 01.9-2.7 3.45 3.45 0 015 0 4 4 0 01.91 2.7v.15a4 4 0 01-.97 2.7 3.49 3.49 0 01-5 0 4 4 0 01-.9-2.71zm1.66.14a3.3 3.3 0 00.42 1.76 1.59 1.59 0 002.61 0 3.13 3.13 0 00.44-1.76v-.14a3.08 3.08 0 00-.44-1.74 1.58 1.58 0 00-2.61 0 3.3 3.3 0 00-.42 1.74z"/></g><g class="cls-16"><path class="cls-2" d="M444.84 394.69h-.74v3.23h-1.66v-10.66h1.66v6.09h.69l1.86-2.83h2l-2.44 3.37 2.8 4H447z"/></g><g class="cls-16"><path class="cls-2" d="M452.78 398.06a3.23 3.23 0 01-2.51-1 3.81 3.81 0 01-.93-2.65v-.27a4 4 0 01.92-2.68 3.23 3.23 0 014.62-.15 3.58 3.58 0 01.8 2.43v1h-4.62a2.3 2.3 0 00.51 1.44 1.66 1.66 0 001.32.56 3.55 3.55 0 001.15-.16 3.68 3.68 0 00.92-.48l.53 1.09a3.28 3.28 0 01-1.1.63 4.63 4.63 0 01-1.61.24zm-.19-6.34a1.26 1.26 0 00-1 .49 2.48 2.48 0 00-.49 1.24h2.9v-.17a1.78 1.78 0 00-.36-1.15 1.32 1.32 0 00-1.05-.41zM458.52 390.52l.1 1.07a2.55 2.55 0 01.91-.88 2.34 2.34 0 011.24-.32 2.31 2.31 0 011.8.7 3.12 3.12 0 01.64 2.18v4.65h-1.66v-4.63a1.66 1.66 0 00-.34-1.19 1.39 1.39 0 00-1-.35 1.81 1.81 0 00-.87.21 2 2 0 00-.63.59v5.37H457v-7.4zM474 395.36a1.29 1.29 0 00-.46-1 4.5 4.5 0 00-1.63-.71 6.69 6.69 0 01-2.57-1.16 2.3 2.3 0 01-.9-1.89 2.42 2.42 0 011-2 4.06 4.06 0 012.57-.78 3.85 3.85 0 012.64.89 2.66 2.66 0 011 2.12H474a1.59 1.59 0 00-.52-1.24 2.11 2.11 0 00-1.48-.47 2.2 2.2 0 00-1.4.39 1.26 1.26 0 00-.49 1 1.13 1.13 0 00.53.94 6.08 6.08 0 001.75.71 5.68 5.68 0 012.44 1.19 2.48 2.48 0 01.84 1.93 2.32 2.32 0 01-1 2 4.27 4.27 0 01-2.61.73 4.6 4.6 0 01-2.74-.83 2.56 2.56 0 01-1.14-2.26h1.6a1.55 1.55 0 00.63 1.35 2.71 2.71 0 001.63.45 2.38 2.38 0 001.43-.37 1.16 1.16 0 00.53-.99zM480.41 398.06a3.23 3.23 0 01-2.51-1 3.81 3.81 0 01-.93-2.65v-.27a3.92 3.92 0 01.93-2.68 3.22 3.22 0 014.61-.15 3.58 3.58 0 01.8 2.43v1h-4.62a2.36 2.36 0 00.51 1.44 1.66 1.66 0 001.32.56 3.22 3.22 0 002.07-.64l.54 1.09a3.44 3.44 0 01-1.11.63 4.63 4.63 0 01-1.61.24zm-.19-6.34a1.23 1.23 0 00-1 .49 2.4 2.4 0 00-.5 1.24h2.93v-.17a1.78 1.78 0 00-.36-1.15 1.32 1.32 0 00-1.07-.41z"/></g><g class="cls-16"><path class="cls-2" d="M488 392h-.71a1.46 1.46 0 00-.81.21 1.24 1.24 0 00-.5.58v5.14h-1.67v-7.4h1.52l.11 1.08a2.4 2.4 0 01.72-.89 1.67 1.67 0 011-.32 1.27 1.27 0 01.28 0l.24.06z"/></g><g class="cls-16"><path class="cls-2" d="M492 395.42l.13.6.13-.6 1.47-4.9h1.72l-2.63 7.4h-1.44l-2.64-7.4h1.72zM498.26 388.71h-1.66v-1.45h1.66zm0 9.21h-1.66v-7.4h1.66zM503.18 396.73a1.51 1.51 0 001-.36 1.1 1.1 0 00.42-.89h1.5a2.19 2.19 0 01-.85 1.79 3.13 3.13 0 01-2.11.75 3.08 3.08 0 01-2.51-1.05 4 4 0 01-.87-2.67v-.23a4.06 4.06 0 01.87-2.67 3.47 3.47 0 014.67-.28 2.51 2.51 0 01.8 2v.05h-1.51a1.46 1.46 0 00-.4-1 1.39 1.39 0 00-1-.42 1.41 1.41 0 00-1.33.68 3.37 3.37 0 00-.39 1.7v.24a3.39 3.39 0 00.39 1.72 1.4 1.4 0 001.32.64zM510.64 398.06a3.21 3.21 0 01-2.5-1 3.77 3.77 0 01-.94-2.65v-.27a3.92 3.92 0 01.93-2.68 3.22 3.22 0 014.61-.15 3.58 3.58 0 01.8 2.43v1h-4.61a2.31 2.31 0 00.52 1.44 1.62 1.62 0 001.31.56 3.22 3.22 0 002.07-.64l.54 1.09a3.44 3.44 0 01-1.11.63 4.6 4.6 0 01-1.62.24zm-.19-6.34a1.23 1.23 0 00-1 .49 2.31 2.31 0 00-.49 1.24h2.93v-.17a1.78 1.78 0 00-.36-1.15 1.32 1.32 0 00-1.08-.41z"/></g></g><path d="M267.42 350.32l3.7-3.7-2.63-2.62a3.84 3.84 0 01-5.3-5.3l-2.63-2.63-18.07 18.07a1.48 1.48 0 000 2.1l8.47 8.47a1.48 1.48 0 002.1 0l16.09-16.09" stroke-miterlimit="10" stroke="#626c87" fill="#fff"/><g class="cls-16"><g class="cls-16"><path class="cls-2" d="M216.77 379.26H214l-.57 1.66h-1.2l2.61-7.11H216l2.59 7.11h-1.21zm-2.44-1h2.1l-1-3z"/></g><g class="cls-16"><path class="cls-2" d="M222.66 380.15a1.84 1.84 0 01-.63.64 1.63 1.63 0 01-.88.23 1.68 1.68 0 01-1.33-.54 2.48 2.48 0 01-.48-1.68v-3.16h1.18v3.17a1.59 1.59 0 00.23 1 .83.83 0 00.68.28 1.59 1.59 0 00.72-.16 1.12 1.12 0 00.45-.44v-3.82h1.19v5.28h-1zM226.5 374.35v1.29h.95v.88h-.95v2.92a.61.61 0 00.15.46.51.51 0 00.37.14.58.58 0 00.19 0h.18l.12.87a1.51 1.51 0 01-.36.13 2 2 0 01-.43 0 1.39 1.39 0 01-1-.38 1.72 1.72 0 01-.37-1.2v-2.92h-.8v-.88h.8v-1.29zM229.68 376.32a1.86 1.86 0 01.64-.58 1.8 1.8 0 01.84-.2 1.68 1.68 0 011.31.53 2.42 2.42 0 01.47 1.63v3.22h-1.19v-3.23a1.31 1.31 0 00-.25-.9.92.92 0 00-.74-.28 1.46 1.46 0 00-.63.14 1.33 1.33 0 00-.45.4v3.87h-1.19v-7.62h1.19zM234 378.23a2.92 2.92 0 01.64-1.93 2.46 2.46 0 013.56 0 2.85 2.85 0 01.65 1.93v.1a2.91 2.91 0 01-.65 1.95 2.5 2.5 0 01-3.56 0 2.92 2.92 0 01-.64-1.94zm1.19.1a2.4 2.4 0 00.3 1.26 1 1 0 00.94.48 1 1 0 00.92-.48 2.31 2.31 0 00.32-1.26v-.1a2.27 2.27 0 00-.32-1.25 1.13 1.13 0 00-1.86 0 2.39 2.39 0 00-.3 1.25zM242.47 376.71h-.51a1.13 1.13 0 00-.58.14.93.93 0 00-.36.42v3.67h-1.19v-5.28h1.09l.08.76a1.61 1.61 0 01.51-.63 1.22 1.22 0 01.73-.23.68.68 0 01.2 0h.17zM244.56 374.34h-1.19v-1h1.19zm0 6.58h-1.19v-5.28h1.19zM247.15 380H250v.95h-4.29v-.78l2.66-3.55h-2.61v-.95h4.11v.74zM254.14 380.92a2.85 2.85 0 01-.11-.39 2.5 2.5 0 01-.06-.38 2 2 0 01-.64.62 1.59 1.59 0 01-.89.25 1.79 1.79 0 01-1.27-.42 1.57 1.57 0 01-.44-1.17 1.36 1.36 0 01.61-1.19 2.87 2.87 0 011.7-.43h.96v-.46a.85.85 0 00-.24-.65.94.94 0 00-.7-.24 1 1 0 00-.64.2.62.62 0 00-.24.5H251a1.3 1.3 0 01.56-1.11 2.39 2.39 0 011.55-.48 2.24 2.24 0 011.48.47 1.64 1.64 0 01.57 1.35v2.34a4.23 4.23 0 000 .63 2.41 2.41 0 00.14.59zm-1.46-.85a1.49 1.49 0 00.81-.22 1 1 0 00.47-.52v-.78H253a1.21 1.21 0 00-.81.26.79.79 0 00-.29.6.59.59 0 00.2.48.8.8 0 00.58.18zM257.87 374.35v1.29h.95v.88h-.95v2.92a.65.65 0 00.14.46.54.54 0 00.38.14.62.62 0 00.19 0h.17l.13.87a1.51 1.51 0 01-.36.13 2 2 0 01-.43 0 1.39 1.39 0 01-1-.38 1.68 1.68 0 01-.37-1.2v-2.92h-.81v-.88h.81v-1.29zM261.14 374.34H260v-1h1.19zm0 6.58H260v-5.28h1.19zM262.25 378.23a2.86 2.86 0 01.64-1.93 2.46 2.46 0 013.56 0 2.85 2.85 0 01.64 1.93v.1a2.9 2.9 0 01-.64 1.95 2.26 2.26 0 01-1.78.74 2.23 2.23 0 01-1.78-.75 2.87 2.87 0 01-.64-1.94zm1.18.1a2.31 2.31 0 00.31 1.26 1 1 0 00.93.48 1 1 0 00.93-.48 2.31 2.31 0 00.31-1.26v-.1a2.27 2.27 0 00-.31-1.25 1 1 0 00-.94-.49 1 1 0 00-.92.49 2.3 2.3 0 00-.31 1.25zM269.2 375.64l.07.76a1.86 1.86 0 01.65-.63 1.79 1.79 0 01.89-.23 1.69 1.69 0 011.29.5 2.27 2.27 0 01.46 1.56v3.32h-1.19v-3.31a1.17 1.17 0 00-.25-.85 1 1 0 00-.74-.25 1.21 1.21 0 00-1.07.58v3.83h-1.19v-5.28zM281.62 378.56a2.26 2.26 0 01-.7 1.76 2.73 2.73 0 01-1.92.68 2.64 2.64 0 01-2-.83 3 3 0 01-.78-2.15v-1.35a3 3 0 01.77-2.14 2.57 2.57 0 012-.84 2.82 2.82 0 012 .66 2.25 2.25 0 01.71 1.78h-1.15a1.54 1.54 0 00-.39-1.12 1.51 1.51 0 00-1.14-.4 1.36 1.36 0 00-1.16.58 2.37 2.37 0 00-.43 1.44V378a2.37 2.37 0 00.44 1.46 1.4 1.4 0 001.18.57 1.51 1.51 0 001.12-.39 1.58 1.58 0 00.38-1.12zM282.42 378.23a2.87 2.87 0 01.65-1.93 2.45 2.45 0 013.55 0 2.85 2.85 0 01.65 1.93v.1a2.91 2.91 0 01-.65 1.95 2.49 2.49 0 01-3.55 0 2.88 2.88 0 01-.65-1.94zm1.19.1a2.4 2.4 0 00.3 1.26 1 1 0 00.94.48 1 1 0 00.93-.48 2.4 2.4 0 00.31-1.26v-.1a2.36 2.36 0 00-.31-1.25 1.05 1.05 0 00-.94-.49 1 1 0 00-.93.49 2.39 2.39 0 00-.3 1.25zM288.09 378.35a3.51 3.51 0 01.54-2 1.76 1.76 0 011.52-.77 1.62 1.62 0 011.36.67v-2.95h1.19v7.62h-1l-.12-.65a1.8 1.8 0 01-.61.56 1.7 1.7 0 01-.83.19 1.77 1.77 0 01-1.51-.71 3 3 0 01-.54-1.86zm1.18.1a2.2 2.2 0 00.28 1.17 1 1 0 00.89.44 1.19 1.19 0 001.07-.62v-2.31a1.36 1.36 0 00-.43-.46 1.28 1.28 0 00-.63-.16 1 1 0 00-.89.51 2.7 2.7 0 00-.29 1.33zM296.24 381a2.29 2.29 0 01-1.79-.73 2.68 2.68 0 01-.67-1.89v-.19a2.83 2.83 0 01.66-1.92 2.11 2.11 0 011.66-.75 2 2 0 011.64.65 2.52 2.52 0 01.57 1.73v.7H295a1.63 1.63 0 00.37 1 1.15 1.15 0 00.94.4 2.49 2.49 0 00.82-.12 2.55 2.55 0 00.66-.33l.38.77a2.38 2.38 0 01-.79.45 3.33 3.33 0 01-1.14.23zm-.14-4.53a.89.89 0 00-.72.35 1.75 1.75 0 00-.36.89h2.1v-.12a1.26 1.26 0 00-.26-.82.94.94 0 00-.76-.28z"/></g></g></svg>