<?xml version="1.0" encoding="UTF-8"?><svg id="Layer_1" xmlns="http://www.w3.org/2000/svg" xmlns:xlink="http://www.w3.org/1999/xlink" viewBox="0 0 617.5 255.86"><defs><style>.cls-1,.cls-2,.cls-3,.cls-4,.cls-5,.cls-6,.cls-7,.cls-8,.cls-9,.cls-10,.cls-11,.cls-12,.cls-13,.cls-14,.cls-15,.cls-16{fill:none;}.cls-1,.cls-7,.cls-11{opacity:.3;}.cls-2,.cls-3,.cls-4,.cls-17,.cls-18,.cls-6,.cls-19,.cls-20,.cls-8,.cls-9,.cls-21,.cls-22,.cls-10,.cls-23,.cls-24,.cls-13,.cls-14,.cls-15{stroke-miterlimit:10;}.cls-2,.cls-3,.cls-4,.cls-23,.cls-24{stroke-width:1.5px;}.cls-2,.cls-6,.cls-8,.cls-21,.cls-24{stroke:#626c87;}.cls-3,.cls-17,.cls-18,.cls-19,.cls-25,.cls-20,.cls-22,.cls-15{stroke:#636d88;}.cls-4,.cls-9,.cls-14{stroke:#646e85;}.cls-17{fill:url(#linear-gradient-2);}.cls-17,.cls-18,.cls-19,.cls-20,.cls-15,.cls-16{stroke-width:.94px;}.cls-18{fill:url(#linear-gradient-3);}.cls-5,.cls-7,.cls-11,.cls-14{isolation:isolate;}.cls-6,.cls-21{stroke-width:1.3px;}.cls-26,.cls-25,.cls-20,.cls-21,.cls-22,.cls-23{fill:#fff;}.cls-27,.cls-24{fill:#646e85;}.cls-28{fill:#636d88;}.cls-29{fill:#626c87;}.cls-30{fill:#5d5d5d;}.cls-31{fill:#515070;}.cls-19{fill:url(#linear-gradient);}.cls-25{stroke-miterlimit:10;stroke-width:.94px;}.cls-7,.cls-11,.cls-12{stroke-linecap:round;}.cls-7,.cls-11,.cls-12,.cls-16{stroke-linejoin:round;}.cls-7,.cls-12{stroke:#656f85;stroke-width:.87px;}.cls-8{stroke-width:.78px;}.cls-9{stroke-width:1.01px;}.cls-22,.cls-13{stroke-width:1.41px;}.cls-10,.cls-11,.cls-23,.cls-16{stroke:#48a69e;}.cls-13{stroke:#646f83;}.cls-14{opacity:.2;stroke-width:1.16px;}</style><linearGradient id="linear-gradient" x1="543.93" y1="1850.92" x2="543.93" y2="1835.95" gradientTransform="translate(0 -1700.07)" gradientUnits="userSpaceOnUse"><stop offset="0" stop-color="#4aa69e" stop-opacity=".8"/><stop offset=".09" stop-color="#5cafa8" stop-opacity=".82"/><stop offset=".54" stop-color="#b3dad6" stop-opacity=".92"/><stop offset=".85" stop-color="#eaf5f4" stop-opacity=".98"/><stop offset="1" stop-color="#fff"/></linearGradient><linearGradient id="linear-gradient-2" x1="532.04" y1="1908.13" x2="532.04" y2="1893.16" gradientTransform="translate(0 -1700.07)" gradientUnits="userSpaceOnUse"><stop offset="0" stop-color="#4aa69e" stop-opacity=".8"/><stop offset=".09" stop-color="#5cafa8" stop-opacity=".82"/><stop offset=".54" stop-color="#b3dad6" stop-opacity=".92"/><stop offset=".85" stop-color="#eaf5f4" stop-opacity=".98"/><stop offset="1" stop-color="#fff"/></linearGradient><linearGradient id="linear-gradient-3" x1="589.59" y1="1889.3" x2="589.59" y2="1874.33" gradientTransform="translate(0 -1700.07)" gradientUnits="userSpaceOnUse"><stop offset="0" stop-color="#4aa69e" stop-opacity=".8"/><stop offset=".09" stop-color="#5cafa8" stop-opacity=".82"/><stop offset=".54" stop-color="#b3dad6" stop-opacity=".92"/><stop offset=".85" stop-color="#eaf5f4" stop-opacity=".98"/><stop offset="1" stop-color="#fff"/></linearGradient></defs><rect class="cls-26" x="-5.28" y="-16.11" width="635" height="291"/><polyline class="cls-24" points="78.26 35.15 78.26 80.08 78.26 88.42"/><path class="cls-27" d="m82.92,84.58h-9.35c-.3,0-.54.23-.55.53,0,.11.03.22.1.32l4.68,6.57c.18.25.52.3.77.12.05-.03.09-.08.12-.12l4.68-6.6c.15-.25.07-.59-.18-.74-.08-.05-.17-.08-.27-.08Z"/><polygon class="cls-19" points="548.26 135.88 539.62 135.88 535.29 143.37 539.62 150.85 548.26 150.85 552.58 143.37 548.26 135.88"/><polygon class="cls-15" points="548.26 135.88 539.62 135.88 535.29 143.37 539.62 150.85 548.26 150.85 552.58 143.37 548.26 135.88"/><circle class="cls-20" cx="543.94" cy="123.26" r="3.64"/><line class="cls-15" x1="543.94" y1="126.9" x2="543.94" y2="133.03"/><circle class="cls-20" cx="543.94" cy="163.48" r="3.64"/><line class="cls-15" x1="543.94" y1="159.84" x2="543.94" y2="153.7"/><circle class="cls-20" cx="526.09" cy="134.5" r="3.64"/><line class="cls-15" x1="529.31" y1="136.16" x2="534.77" y2="138.99"/><circle class="cls-20" cx="561.78" cy="153.01" r="3.64"/><line class="cls-15" x1="558.56" y1="151.33" x2="553.11" y2="148.51"/><circle class="cls-20" cx="525.9" cy="152.62" r="3.64"/><line class="cls-15" x1="529.16" y1="151.02" x2="534.67" y2="148.31"/><circle class="cls-20" cx="561.98" cy="134.87" r="3.64"/><line class="cls-15" x1="558.72" y1="136.48" x2="553.21" y2="139.19"/><polygon class="cls-17" points="536.36 193.09 527.72 193.09 523.4 200.57 527.72 208.06 536.36 208.06 540.68 200.57 536.36 193.09"/><polygon class="cls-15" points="536.36 193.09 527.72 193.09 523.4 200.57 527.72 208.06 536.36 208.06 540.68 200.57 536.36 193.09"/><circle class="cls-20" cx="532.04" cy="180.47" r="3.64"/><line class="cls-15" x1="532.04" y1="184.09" x2="532.04" y2="190.24"/><circle class="cls-20" cx="532.04" cy="220.68" r="3.64"/><line class="cls-15" x1="532.04" y1="217.04" x2="532.04" y2="210.9"/><circle class="cls-20" cx="514.19" cy="191.69" r="3.64"/><line class="cls-15" x1="517.42" y1="193.37" x2="522.87" y2="196.19"/><circle class="cls-20" cx="549.89" cy="210.2" r="3.64"/><line class="cls-15" x1="546.66" y1="208.53" x2="541.22" y2="205.71"/><circle class="cls-20" cx="514" cy="209.82" r="3.64"/><line class="cls-15" x1="517.26" y1="208.22" x2="522.77" y2="205.51"/><circle class="cls-20" cx="550.09" cy="192.08" r="3.64"/><line class="cls-15" x1="546.83" y1="193.68" x2="541.32" y2="196.39"/><circle class="cls-20" cx="571.74" cy="172.87" r="3.64"/><line class="cls-15" x1="574.97" y1="174.54" x2="580.42" y2="177.37"/><circle class="cls-25" cx="571.57" cy="191.02" r="3.64" transform="translate(291.44 724.6) rotate(-80.78)"/><line class="cls-15" x1="574.81" y1="189.39" x2="580.32" y2="186.68"/><polygon class="cls-18" points="593.91 174.26 585.27 174.26 580.95 181.75 585.27 189.23 593.91 189.23 598.23 181.75 593.91 174.26"/><polygon class="cls-15" points="593.91 174.26 585.27 174.26 580.95 181.75 585.27 189.23 593.91 189.23 598.23 181.75 593.91 174.26"/><circle class="cls-20" cx="589.59" cy="161.63" r="3.64"/><line class="cls-15" x1="589.59" y1="165.27" x2="589.59" y2="171.42"/><circle class="cls-20" cx="589.59" cy="201.85" r="3.64"/><line class="cls-15" x1="589.59" y1="198.22" x2="589.59" y2="192.08"/><circle class="cls-20" cx="607.44" cy="191.38" r="3.64"/><line class="cls-15" x1="604.21" y1="189.7" x2="598.77" y2="186.88"/><circle class="cls-20" cx="607.64" cy="173.25" r="3.64"/><line class="cls-15" x1="604.37" y1="174.86" x2="598.87" y2="177.57"/><g id="Graphic_56-2-2"><path class="cls-26" d="m422.12,212.33h8.42v-5.47c-3.07-.58-5.08-3.54-4.49-6.61.43-2.28,2.21-4.06,4.49-4.49v-5.49h-41.13c-1.26-.05-2.33.93-2.39,2.19v17.68c.07,1.26,1.13,2.23,2.39,2.2h36.59"/><path class="cls-16" d="m422.12,212.33h8.42v-5.47c-3.07-.58-5.08-3.54-4.49-6.61.43-2.28,2.21-4.06,4.49-4.49v-5.49h-41.13c-1.26-.05-2.33.93-2.39,2.19v17.68c.07,1.26,1.13,2.23,2.39,2.2h36.59"/><path class="cls-30" d="m398.85,196.86h1.06v5.69c.04.67-.21,1.33-.69,1.8-.5.45-1.16.69-1.84.65-.68.04-1.34-.18-1.87-.61-.45-.46-.69-1.08-.66-1.72h1.06c-.02.39.11.78.37,1.08.3.27.7.41,1.1.38.4.02.78-.13,1.06-.41.29-.31.44-.73.41-1.16v-5.7Z"/><path class="cls-30" d="m403.45,202.36l.15,1.06.23-1,1.59-5.6h.89l1.55,5.6.22,1,.17-1.08,1.25-5.49h1.06l-1.95,8h-1l-1.61-5.85-.13-.61-.13.61-1.74,5.86h-1l-1.94-8h1.06l1.33,5.5Z"/><path class="cls-30" d="m417.36,197.73h-2.58v7.13h-1.06v-7.16h-2.57v-.84h6.21v.87Z"/></g><g id="Graphic_56-2-3"><path class="cls-26" d="m422.12,158.94h8.42v-5.47c-3.07-.58-5.08-3.54-4.49-6.61.43-2.28,2.21-4.06,4.49-4.49v-5.49h-41.13c-1.26-.05-2.33.93-2.39,2.19v17.68c.06,1.26,1.13,2.25,2.39,2.2h36.59"/><path class="cls-16" d="m422.12,158.94h8.42v-5.47c-3.07-.58-5.08-3.54-4.49-6.61.43-2.28,2.21-4.06,4.49-4.49v-5.49h-41.13c-1.26-.05-2.33.93-2.39,2.19v17.68c.06,1.26,1.13,2.25,2.39,2.2h36.59"/><path class="cls-30" d="m398.85,143.47h1.06v5.73c.04.67-.21,1.33-.69,1.8-.5.45-1.16.69-1.84.65-.68.04-1.34-.18-1.87-.61-.45-.46-.69-1.08-.66-1.72h1.06c-.02.39.11.78.37,1.08.3.27.7.41,1.1.38.4.02.78-.13,1.06-.41.29-.31.44-.73.41-1.16v-5.74Z"/><path class="cls-30" d="m403.45,149l.15,1.06.23-1,1.59-5.6h.89l1.55,5.6.22,1,.17-1.08,1.25-5.49h1.06l-1.95,8h-1l-1.61-5.84-.13-.61-.13.61-1.74,5.82h-1l-1.94-8h1.06l1.33,5.53Z"/><path class="cls-30" d="m417.36,144.34h-2.58v7.13h-1.06v-7.16h-2.57v-.84h6.21v.87Z"/></g><path class="cls-27" d="m442,86.69v-9.35c0-.3.24-.54.53-.55.12,0,.23.04.33.11l6.59,4.67c.25.17.31.51.14.75-.04.05-.08.1-.14.14l-6.59,4.68c-.25.17-.59.11-.76-.14-.06-.09-.09-.2-.1-.31Z"/><polyline class="cls-3" points="347.03 82.27 439.66 82.27 443.86 82.27"/><rect class="cls-14" x="458.64" y="48.89" width="122.61" height="58.87" rx="4.65" ry="4.65"/><path class="cls-8" d="m535.42,73.36h6.8c.96-.03,1.75.72,1.78,1.68,0,.01,0,.03,0,.04v5.3c0,.95-.78,1.72-1.73,1.73h-44.61c-.95,0-1.72-.78-1.72-1.73v-5.3c0-.95.77-1.71,1.72-1.72h5.17"/><line class="cls-8" x1="502.83" y1="73.36" x2="504.75" y2="73.36"/><circle class="cls-29" cx="539.3" cy="77.64" r=".95"/><line class="cls-8" x1="498.99" y1="75.76" x2="498.99" y2="79.7"/><line class="cls-8" x1="500.91" y1="75.76" x2="500.91" y2="79.7"/><line class="cls-8" x1="502.83" y1="75.76" x2="502.83" y2="79.7"/><line class="cls-8" x1="504.75" y1="75.76" x2="504.75" y2="79.7"/><path class="cls-29" d="m527.56,67.34l-.2.19c-.98,1.04-2.33,1.66-3.76,1.72-1.9.08-3.51-1.39-3.6-3.29,0-.1,0-.19,0-.29-.09-1.88,1.35-3.48,3.24-3.58.08,0,.16,0,.23,0,1.3.05,2.54.53,3.53,1.38l.2.17,1.93-2-.22-.18c-1.59-1.3-3.58-2.01-5.64-2-2.07-.05-4.04.92-5.27,2.59h-3.56l-.21,1.75h2.93c-.1.33-.17.66-.21,1h-4.37l-.21,1.76h4.63c.05.34.11.67.2,1h-6.58l-.21,1.75h7.59c1.24,1.72,3.26,2.72,5.39,2.65,2.2-.02,4.32-.87,5.92-2.39l.2-.19-1.95-2.04Z"/><polygon class="cls-29" points="512.09 64.78 510.81 64.78 510.6 66.53 511.89 66.53 512.09 64.78"/><path class="cls-27" d="m486.51,97h-2.73l-.61,1.71h-.89l2.49-6.52h.75l2.48,6.51h-.88l-.61-1.7Zm-2.47-.7h2.22l-1.11-3.05-1.11,3.05Z"/><path class="cls-27" d="m491.7,98.22c-.36.4-.89.6-1.42.56-.44.03-.87-.13-1.17-.45-.3-.37-.45-.85-.41-1.33v-3.15h.82v3.15c0,.73.3,1.1.9,1.1.53.06,1.04-.23,1.26-.71v-3.54h.83v4.85h-.79l-.02-.48Z"/><path class="cls-27" d="m494.89,92.68v1.17h.9v.64h-.9v3c-.01.16.03.31.12.44.11.1.26.15.41.14.13.01.27.01.4,0v.67c-.21.05-.42.08-.64.08-.32.03-.63-.09-.84-.33-.21-.29-.31-.64-.28-1v-3h-.88v-.64h.88v-1.17h.83Z"/><path class="cls-27" d="m497.59,94.44c.34-.44.87-.69,1.43-.68,1,0,1.54.58,1.55,1.73v3.21h-.83v-3.21c.02-.28-.06-.55-.24-.77-.2-.18-.46-.27-.73-.25-.25,0-.5.07-.71.21-.2.14-.36.34-.47.56v3.46h-.83v-6.88h.83v2.62Z"/><path class="cls-27" d="m501.59,96.23c0-.44.09-.88.28-1.28.35-.74,1.1-1.21,1.92-1.19.61-.03,1.2.23,1.6.69.43.51.65,1.16.61,1.82v.06c0,.44-.09.87-.27,1.27-.17.36-.44.66-.78.87-.35.21-.74.32-1.15.31-.61.03-1.2-.22-1.6-.68-.42-.5-.64-1.15-.61-1.81v-.06Zm.83.1c-.02.46.11.91.38,1.29.42.55,1.21.66,1.77.23.09-.07.17-.15.23-.23.27-.41.4-.89.37-1.38.03-.46-.11-.92-.38-1.29-.41-.55-1.2-.66-1.75-.25-.09.07-.18.16-.25.25-.27.41-.4.89-.37,1.38h0Z"/><path class="cls-27" d="m509.38,94.6c-.14-.02-.27-.02-.41,0-.48-.04-.93.25-1.1.7v3.4h-.87v-4.85h.8v.56c.23-.41.68-.66,1.15-.65.13,0,.25.02.37.07l.06.77Z"/><path class="cls-27" d="m510.14,92.57c0-.13.04-.25.13-.34.09-.1.23-.15.36-.14.14,0,.27.04.37.14.08.09.12.22.12.34.01.25-.18.46-.43.47-.02,0-.04,0-.06,0-.13,0-.27-.04-.36-.14-.08-.09-.13-.21-.13-.33Zm.9,6.13h-.83v-4.85h.79l.04,4.85Z"/><path class="cls-27" d="m513.14,98h2.86v.68h-3.85v-.61l2.67-3.55h-2.63v-.69h3.67v.59l-2.72,3.58Z"/><path class="cls-27" d="m519.9,98.7c-.07-.16-.11-.33-.12-.51-.36.38-.86.6-1.38.59-.43.02-.84-.12-1.17-.4-.29-.25-.46-.61-.46-1-.02-.46.2-.9.57-1.17.48-.31,1.05-.45,1.62-.42h.81v-.38c.01-.26-.08-.51-.26-.69-.21-.19-.49-.28-.77-.26-.26-.01-.52.07-.74.22-.19.12-.3.33-.3.55h-.83c0-.26.09-.51.25-.71.19-.23.43-.41.7-.53.32-.14.66-.21,1-.2.47-.03.94.12,1.31.42.32.29.51.71.5,1.15v2.23c-.02.36.04.72.17,1.06v.08l-.9-.03Zm-1.38-.64c.26,0,.52-.07.74-.2.22-.12.39-.3.51-.52v-1h-.65c-1,0-1.52.29-1.52.89-.02.23.08.45.26.6.19.15.42.24.66.23Z"/><path class="cls-27" d="m523,92.68v1.17h.9v.64h-.9v3c-.01.16.03.31.12.44.11.1.26.15.41.14.13.01.26.01.39,0v.67c-.21.05-.42.08-.63.08-.32.03-.63-.09-.84-.33-.22-.29-.32-.64-.28-1v-3h-.88v-.64h.88v-1.17h.83Z"/><path class="cls-27" d="m524.89,92.57c0-.13.04-.25.13-.34.09-.1.23-.15.36-.14.14,0,.27.04.37.14.08.09.12.22.12.34,0,.12-.04.24-.12.33-.1.1-.23.15-.37.14-.13,0-.27-.04-.36-.14-.09-.09-.13-.21-.13-.33Zm.9,6.13h-.79v-4.85h.83l-.04,4.85Z"/><path class="cls-27" d="m526.89,96.23c0-.44.09-.88.28-1.28.17-.36.44-.66.78-.88.34-.21.74-.31,1.14-.31.61-.03,1.2.23,1.6.69.43.51.65,1.16.61,1.82v.06c0,.44-.11.87-.3,1.27-.17.36-.44.66-.77.87-.35.21-.75.32-1.16.31-.61.03-1.2-.22-1.6-.68-.42-.51-.64-1.15-.61-1.81l.03-.06Zm.84.1c-.02.46.11.91.37,1.29.42.55,1.21.66,1.77.23.09-.07.17-.15.23-.23.27-.41.4-.89.37-1.38.02-.46-.11-.91-.37-1.29-.23-.32-.61-.5-1-.5-.39-.01-.77.17-1,.49-.27.41-.4.9-.37,1.39h0Z"/><path class="cls-27" d="m533.12,93.85v.61c.34-.45.88-.71,1.45-.7,1,0,1.54.58,1.55,1.73v3.21h-.83v-3.21c.02-.28-.06-.55-.24-.77-.2-.18-.46-.27-.73-.25-.25,0-.5.07-.71.21-.2.14-.36.34-.47.56v3.46h-.83v-4.85h.81Z"/><path class="cls-27" d="m541.72,95.79c-.59-.14-1.14-.4-1.61-.78-.33-.29-.52-.7-.51-1.14,0-.5.22-.97.62-1.28.46-.35,1.02-.52,1.6-.5.41,0,.83.08,1.2.26.33.16.61.4.81.71.19.3.29.65.29,1h-.86c.01-.35-.12-.69-.38-.93-.3-.25-.68-.37-1.06-.34-.36-.02-.71.07-1,.28-.24.19-.37.48-.36.78,0,.26.13.51.34.67.36.24.77.4,1.2.48.44.11.87.28,1.27.5.28.15.51.37.68.64.16.26.23.56.23.87.01.5-.22.97-.62,1.27-.48.34-1.06.5-1.65.47-.43,0-.86-.08-1.26-.25-.36-.15-.67-.4-.9-.71-.21-.29-.31-.64-.31-1h.86c-.01.36.15.71.44.93.34.24.75.36,1.17.34.35.02.71-.08,1-.28.24-.17.37-.46.36-.75.02-.29-.11-.57-.34-.74-.37-.24-.78-.41-1.21-.5Z"/><path class="cls-27" d="m547.12,98.78c-.6.02-1.19-.21-1.61-.64-.42-.47-.64-1.1-.61-1.73v-.15c0-.44.09-.89.27-1.29.17-.36.44-.67.77-.89.32-.21.69-.32,1.07-.32.56-.03,1.1.2,1.47.62.38.52.56,1.15.52,1.79v.34h-3.28c0,.42.15.83.42,1.16.26.28.62.44,1,.44.26,0,.51-.05.74-.18.21-.12.39-.28.54-.47l.5.39c-.39.61-1.08.97-1.8.93Zm-.12-4.34c-.32,0-.63.13-.84.37-.24.28-.39.63-.42,1h2.43v-.06c0-.36-.12-.71-.34-1-.22-.22-.52-.33-.83-.31Z"/><path class="cls-27" d="m552.3,94.6c-.13-.02-.27-.02-.4,0-.48-.04-.93.25-1.11.7v3.4h-.79v-4.85h.81v.56c.24-.41.68-.66,1.16-.65.12,0,.25.02.36.07l-.03.77Z"/><path class="cls-27" d="m554.74,97.57l1.2-3.72h.85l-1.74,4.85h-.63l-1.75-4.85h.84l1.23,3.72Z"/><path class="cls-27" d="m559.54,98.78c-.6.02-1.19-.21-1.61-.64-.42-.47-.64-1.1-.61-1.73v-.15c0-.44.09-.89.27-1.29.17-.36.44-.67.77-.89.32-.21.69-.32,1.07-.32.56-.03,1.1.2,1.47.62.38.52.57,1.15.53,1.79v.34h-3.29c0,.42.15.83.42,1.16.26.28.62.44,1,.44.26,0,.51-.05.74-.18.21-.12.39-.28.54-.47l.5.39c-.39.61-1.08.97-1.8.93Zm-.11-4.34c-.32,0-.63.13-.84.37-.24.28-.38.63-.42,1h2.43v-.06c0-.36-.12-.71-.34-1-.22-.22-.52-.33-.83-.31Z"/><path class="cls-27" d="m564.72,94.6c-.13-.02-.27-.02-.4,0-.48-.04-.93.25-1.11.7v3.4h-.83v-4.85h.81v.56c.24-.41.68-.66,1.16-.65.12,0,.25.02.36.07v.77Z"/><path class="cls-2" d="m345.77,182.13h105.49c2.83,0,5.13,2.3,5.13,5.13h0v17.35c0,2.83,2.3,5.13,5.13,5.13h35.42"/><path class="cls-27" d="m495.24,214.42v-9.36c0-.3.24-.54.53-.55.12,0,.23.04.33.11l6.59,4.68c.24.17.3.51.13.75-.03.05-.08.09-.13.13l-6.59,4.68c-.24.18-.58.13-.75-.11-.07-.09-.11-.21-.11-.33Z"/><path class="cls-2" d="m345.47,166.07h105.53c2.83,0,5.12-2.28,5.13-5.11v-17.37c0-2.83,2.31-5.13,5.14-5.13h35.42"/><path class="cls-27" d="m494.94,133.78v9.36c0,.3.24.54.54.54.11,0,.22-.03.31-.1l6.6-4.68c.24-.17.3-.51.13-.75-.03-.05-.08-.09-.13-.13l-6.6-4.68c-.24-.17-.58-.11-.75.13-.06.09-.1.2-.1.31Z"/><path class="cls-27" d="m132.84,83.44h-1.09v-7.22l-2.19.8v-1.02l3.11-1.17h.17v8.61Z"/><path class="cls-27" d="m137.94,78.47c0-.16-.07-.31-.2-.4-.2-.13-.43-.21-.67-.25-.26-.05-.52-.13-.76-.24-.17-.08-.31-.19-.42-.34-.09-.14-.14-.31-.13-.48,0-.3.15-.58.38-.76.6-.43,1.4-.43,2,0,.26.2.4.51.39.83h-.63c0-.18-.08-.34-.22-.45-.16-.13-.36-.2-.56-.19-.19-.01-.38.04-.54.15-.12.09-.19.24-.19.39,0,.14.06.27.18.35.2.11.42.18.65.22.27.05.52.14.77.25.17.08.33.21.44.36.1.15.14.32.14.5,0,.31-.15.61-.4.8-.29.2-.64.3-1,.29-.27,0-.53-.05-.78-.15-.22-.1-.4-.25-.54-.44-.12-.18-.19-.39-.19-.61h.63c0,.2.1.38.26.5.18.13.4.2.62.19.2.01.41-.04.58-.15.12-.08.19-.22.19-.37Z"/><path class="cls-27" d="m140.25,74.86v.89h.69v.49h-.69v2.29c0,.12.02.24.09.34.09.08.2.12.32.11.1.01.2.01.3,0v.51c-.16.04-.32.06-.49.06-.24.02-.48-.07-.64-.25-.15-.21-.23-.47-.21-.73v-2.33h-.68v-.49h.68v-.89h.63Z"/><path class="cls-27" d="m150.35,80.34c.04.83-.2,1.65-.67,2.34-.42.57-1.08.9-1.79.88-.68.03-1.35-.23-1.82-.73v3h-1.07v-8.73h1l.05.71c.45-.55,1.13-.86,1.84-.82.71-.03,1.39.29,1.81.86.48.7.72,1.54.67,2.39l-.02.1Zm-1.09-.12c.03-.6-.13-1.19-.46-1.69-.28-.41-.75-.64-1.25-.62-.62-.02-1.2.32-1.48.87v3c.28.56.87.9,1.49.87.49.01.96-.22,1.24-.62.34-.54.5-1.17.46-1.81h0Z"/><path class="cls-27" d="m155.64,83.44c-.09-.21-.15-.44-.16-.67-.46.51-1.11.8-1.8.79-.56.02-1.11-.17-1.54-.53-.39-.34-.61-.83-.6-1.35-.03-.6.25-1.18.75-1.53.63-.4,1.37-.6,2.12-.55h1.06v-.5c.01-.33-.11-.66-.34-.9-.27-.24-.63-.37-1-.34-.36-.02-.71.09-1,.29-.24.16-.38.42-.39.71h-1.09c0-.34.13-.66.34-.92.24-.3.55-.54.91-.7.4-.17.83-.26,1.27-.25.62-.04,1.23.16,1.72.54.42.39.65.94.64,1.51v2.96c-.02.47.05.95.22,1.39v.09l-1.11-.04Zm-1.8-.82c.35,0,.7-.09,1-.27.29-.15.52-.39.67-.68v-1.3h-.85c-1.33,0-2,.39-2,1.16-.01.3.11.6.34.8.24.19.54.29.84.29Z"/><path class="cls-27" d="m161.31,78.08c-.18-.02-.35-.02-.53,0-.63-.04-1.22.32-1.45.91v4.5h-1.08v-6.39h1.05v.74c.31-.54.89-.87,1.51-.85.16-.01.33.01.48.08l.02,1.01Z"/><path class="cls-27" d="m164.07,75.57v1.53h1.19v.84h-1.19v3.94c-.01.2.05.4.16.57.14.14.34.21.54.19.18,0,.35-.03.52-.07v.87c-.27.08-.56.12-.84.12-.41.03-.81-.14-1.09-.44-.27-.36-.4-.8-.37-1.25v-3.93h-1.15v-.84h1.16v-1.53h1.07Z"/><path class="cls-27" d="m168.6,81.85l1.47-4.75h1.16l-2.54,7.32c-.4,1.06-1,1.58-1.89,1.58h-.2l-.4-.08v-.92h.29c.3.02.6-.06.86-.22.24-.21.42-.5.5-.81l.24-.65-2.26-6.27h1.17l1.6,4.8Z"/><path class="cls-27" d="m177.71,82.68c.37,0,.72-.13,1-.36.28-.21.45-.53.48-.88h1c-.03.36-.16.71-.37,1-.24.33-.55.61-.92.79-.38.19-.8.29-1.23.29-.78.03-1.53-.28-2.05-.86-.54-.67-.82-1.51-.77-2.37v-.18c-.01-.57.1-1.13.34-1.65.22-.46.56-.85,1-1.12.45-.27.97-.4,1.5-.39.65-.02,1.28.2,1.77.63.47.43.74,1.03.75,1.66h-1c-.02-.38-.19-.74-.47-1-.27-.25-.63-.39-1-.39-.5-.03-.98.19-1.28.59-.34.51-.5,1.11-.46,1.72v.21c-.04.6.12,1.19.46,1.68.29.4.76.64,1.25.63Z"/><path class="cls-27" d="m181.17,80.21c0-.58.11-1.15.36-1.67.45-.95,1.42-1.56,2.47-1.54.8-.03,1.57.29,2.1.89.56.67.84,1.52.8,2.39v.07c0,.57-.11,1.14-.36,1.66-.21.47-.56.87-1,1.15-.46.28-.98.42-1.52.41-.79.03-1.56-.3-2.08-.9-.56-.66-.85-1.51-.8-2.37l.03-.09Zm1.09.13c-.03.6.14,1.2.48,1.7.31.41.8.65,1.31.64.52.02,1.02-.23,1.32-.65.35-.54.52-1.18.48-1.82.03-.6-.14-1.2-.49-1.69-.57-.72-1.61-.85-2.33-.28-.1.08-.2.18-.28.28-.35.54-.53,1.18-.49,1.82Z"/><path class="cls-27" d="m188,80.21c-.01-.58.12-1.15.37-1.67.21-.47.56-.87,1-1.15.45-.27.97-.41,1.49-.4.79-.03,1.56.29,2.09.89.56.67.84,1.52.8,2.39v.07c0,.57-.11,1.14-.35,1.66-.22.47-.56.87-1,1.15-.45.28-.98.42-1.51.41-.8.03-1.56-.3-2.09-.9-.56-.66-.84-1.51-.8-2.37v-.08Zm1.09.13c-.03.61.14,1.2.49,1.7.31.42.79.65,1.31.64.52.02,1.01-.23,1.31-.65.35-.54.53-1.18.49-1.82.02-.6-.15-1.2-.5-1.69-.57-.72-1.61-.85-2.33-.28-.1.08-.2.18-.28.28-.35.54-.52,1.18-.48,1.82h-.01Z"/><path class="cls-27" d="m196.91,80.51l-.68.71v2.22h-1.08v-9h1.08v5.45l.58-.7,2-2.09h1.32l-2.46,2.65,2.75,3.69h-1.27l-2.24-2.93Z"/><path class="cls-27" d="m201.23,75.42c0-.16.05-.32.16-.44.27-.28.71-.28.99-.01,0,0,0,0,.01.01.11.12.17.28.16.44,0,.35-.29.64-.64.64-.35,0-.64-.29-.64-.64h0s-.04,0-.04,0Zm1.17,8h-1.08v-6.32h1.08v6.32Z"/><path class="cls-27" d="m206.77,83.56c-.79.03-1.55-.28-2.1-.85-.56-.62-.85-1.43-.81-2.26v-.2c0-.58.11-1.16.36-1.69.22-.47.57-.87,1-1.16.42-.27.9-.41,1.4-.41.73-.04,1.44.26,1.92.81.5.67.75,1.5.69,2.33v.45h-4.3c0,.56.19,1.1.55,1.52.34.38.82.59,1.33.58.35.02.7-.07,1-.24.27-.16.5-.37.69-.62l.67.52c-.52.81-1.44,1.27-2.4,1.22Zm-.14-5.68c-.42,0-.82.16-1.1.47-.32.38-.51.85-.55,1.34h3.17v-.08c0-.46-.15-.91-.44-1.28-.28-.3-.67-.47-1.08-.45Z"/><path class="cls-27" d="m132.84,177.52h-1.09v-7.23l-2.19.81v-1l3.11-1.17h.17v8.59Z"/><path class="cls-27" d="m137.94,172.54c0-.16-.07-.31-.2-.4-.21-.12-.43-.2-.67-.24-.26-.05-.52-.13-.76-.25-.17-.07-.31-.19-.42-.34-.09-.14-.14-.3-.13-.47,0-.3.14-.58.38-.77.6-.42,1.4-.42,2,0,.26.2.4.51.39.83h-.63c0-.18-.08-.34-.22-.45-.16-.12-.36-.19-.56-.18-.19-.01-.38.04-.54.15-.12.09-.19.24-.19.39,0,.14.06.27.18.34.2.11.42.19.65.23.27.05.53.13.77.25.17.08.32.2.44.35.25.44.14.99-.26,1.3-.29.21-.64.31-1,.3-.27,0-.54-.05-.78-.16-.22-.09-.41-.24-.54-.44-.12-.18-.19-.39-.19-.61h.63c0,.2.1.39.26.51.18.13.4.19.62.18.2,0,.4-.04.58-.14.12-.09.19-.23.19-.38Z"/><path class="cls-27" d="m140.25,168.93v.89h.69v.49h-.69v2.3c0,.12.02.23.09.33.08.08.2.13.32.11.1.01.2.01.3,0v.51c-.16.05-.32.07-.49.07-.24.01-.48-.08-.64-.26-.15-.21-.23-.46-.21-.72v-2.3h-.68v-.49h.68v-.89l.63-.04Z"/><path class="cls-27" d="m150.35,174.42c.04.83-.2,1.65-.67,2.33-.41.57-1.08.9-1.79.88-.68.03-1.35-.23-1.82-.73v3h-1.07v-8.77h1l.05.7c.45-.55,1.13-.86,1.84-.82.71-.03,1.38.3,1.81.86.48.7.72,1.55.67,2.4l-.02.15Zm-1.09-.13c.03-.6-.13-1.19-.46-1.69-.29-.4-.76-.64-1.25-.62-.62-.02-1.2.32-1.48.87v3c.28.56.87.9,1.49.87.49.01.96-.22,1.24-.62.34-.54.5-1.17.46-1.81h0Z"/><path class="cls-27" d="m155.64,177.52c-.09-.21-.14-.44-.16-.67-.46.5-1.12.79-1.8.78-.56.03-1.11-.16-1.54-.53-.39-.33-.61-.83-.6-1.34-.03-.61.26-1.19.75-1.54.63-.4,1.37-.59,2.12-.55h1.06v-.49c.01-.34-.11-.66-.34-.91-.28-.24-.64-.36-1-.34-.36-.02-.71.09-1,.3-.24.15-.39.42-.39.7h-1.09c0-.34.13-.67.35-.93.24-.31.55-.55.91-.7.4-.17.83-.26,1.27-.26.62-.04,1.24.16,1.72.55.42.39.65.94.64,1.51v2.9c-.02.47.05.95.22,1.39v.1l-1.12.03Zm-1.8-.83c.35,0,.7-.08,1-.26.29-.16.52-.4.67-.69v-1.3h-.85c-1.33,0-2,.39-2,1.17-.01.3.11.59.34.79.24.19.53.3.84.29Z"/><path class="cls-27" d="m161.31,172.15c-.18-.02-.35-.02-.53,0-.63-.05-1.22.32-1.45.91v4.5h-1.08v-6.34h1.05v.73c.31-.54.89-.87,1.51-.85.16,0,.33.02.48.08l.02.97Z"/><path class="cls-27" d="m164.07,169.64v1.54h1.19v.82h-1.19v4c-.01.2.04.4.16.57.14.14.34.21.54.19.18,0,.35-.03.52-.07v.88c-.27.07-.56.11-.84.11-.41.03-.81-.13-1.09-.44-.27-.36-.39-.8-.36-1.24v-4h-1.15v-.84h1.15v-1.54l1.07.02Z"/><path class="cls-27" d="m168.6,175.93l1.47-4.75h1.16l-2.54,7.32c-.4,1.05-1,1.58-1.89,1.58h-.2l-.4-.08v-.88h.29c.3.01.6-.06.86-.22.25-.22.42-.5.5-.82l.24-.64-2.26-6.27h1.17l1.6,4.76Z"/><path class="cls-27" d="m177.71,176.75c.36,0,.72-.12,1-.35.28-.21.45-.53.48-.88h1c-.03.36-.16.71-.37,1-.24.33-.55.6-.92.78-.38.19-.8.29-1.23.29-.78.04-1.53-.28-2.05-.86-.54-.66-.82-1.5-.77-2.36v-.19c-.01-.57.1-1.13.34-1.64.21-.47.56-.86,1-1.12.45-.28.97-.42,1.5-.4.65-.02,1.28.21,1.77.64.47.42.74,1.03.75,1.66h-1c-.02-.38-.19-.74-.47-1-.27-.26-.63-.4-1-.4-.5-.02-.98.2-1.28.6-.34.51-.5,1.11-.46,1.72v.2c-.04.6.12,1.19.46,1.69.29.4.76.63,1.25.62Z"/><path class="cls-27" d="m181.17,174.29c0-.58.11-1.15.36-1.68.22-.47.57-.86,1-1.15.45-.27.97-.41,1.49-.4.8-.03,1.57.3,2.1.9.56.66.84,1.51.8,2.38v.08c0,.57-.11,1.14-.36,1.66-.21.47-.56.87-1,1.14-.46.28-.98.42-1.52.41-.79.03-1.56-.3-2.08-.89-.56-.66-.85-1.51-.8-2.38v-.07Zm1.09.13c-.03.6.14,1.19.48,1.69.56.73,1.6.86,2.33.3.11-.09.21-.19.3-.3.35-.54.52-1.17.48-1.81.03-.6-.14-1.2-.49-1.69-.32-.42-.83-.65-1.36-.61-.51-.01-.99.23-1.29.64-.34.53-.49,1.15-.45,1.78Z"/><path class="cls-27" d="m188,174.29c-.01-.58.12-1.16.37-1.68.22-.47.56-.87,1-1.15.45-.27.97-.41,1.49-.4.8-.03,1.56.3,2.09.9.56.66.84,1.51.8,2.38v.08c0,.57-.11,1.14-.35,1.66-.22.47-.56.86-1,1.14-.45.28-.98.42-1.51.41-.79.03-1.56-.29-2.09-.89-.56-.67-.84-1.51-.8-2.38v-.07Zm1.09.13c-.03.6.14,1.2.49,1.69.55.72,1.59.86,2.31.31.12-.09.22-.19.31-.31.35-.54.52-1.17.49-1.81.03-.6-.15-1.2-.5-1.69-.3-.42-.79-.66-1.31-.65-.51-.01-1,.22-1.3.64-.36.54-.52,1.18-.48,1.82h-.01Z"/><path class="cls-27" d="m196.91,174.58l-.68.71v2.23h-1.08v-9h1.08v5.48l.58-.7,2-2.08h1.32l-2.46,2.65,2.75,3.69h-1.27l-2.24-2.98Z"/><path class="cls-27" d="m201.23,169.5c0-.17.05-.33.16-.45.28-.26.72-.26,1,0,.11.12.17.28.16.45,0,.16-.05.31-.16.43-.28.26-.72.26-1,0-.11-.12-.17-.27-.16-.43Zm1.17,8h-1.08v-6.34h1.08v6.34Z"/><path class="cls-27" d="m206.77,177.63c-.79.03-1.55-.28-2.1-.84-.56-.62-.85-1.44-.81-2.27v-.2c-.01-.58.11-1.16.36-1.68.22-.47.56-.87,1-1.16.41-.28.9-.42,1.4-.42.73-.04,1.44.26,1.92.81.5.67.75,1.5.69,2.34v.45h-4.3c0,.55.19,1.09.55,1.51.33.38.82.6,1.33.58.35.01.69-.07,1-.23.27-.17.5-.38.69-.63l.67.52c-.52.81-1.44,1.28-2.4,1.22Zm-.14-5.68c-.42,0-.82.17-1.1.48-.32.38-.52.85-.55,1.34h3.17v-.09c0-.46-.16-.91-.44-1.28-.28-.28-.68-.43-1.08-.4v-.05Z"/><circle class="cls-9" cx="77.56" cy="17.56" r="12.02"/><ellipse class="cls-9" cx="77.56" cy="17.56" rx="6.67" ry="12.02"/><line class="cls-9" x1="66.25" y1="13.45" x2="88.87" y2="13.45"/><line class="cls-9" x1="66.25" y1="20.98" x2="89.09" y2="20.98"/><path class="cls-23" d="m346,90.76l-.17-23.69-20.37.14c-2.09,7.79-10.41,13.69-20.46,13.79s-18.45-5.69-20.63-13.45l-20.37.12.85,115.85c0,3.7,3.71,6.71,8.18,6.67l65.54-.48c4.47,0,8.1-3.09,8.08-6.79l-.75-103.13"/><g class="cls-5"><g class="cls-5"><path class="cls-27" d="m284.44,115.63c0,.7-.12,1.3-.35,1.82-.23.52-.57.92-1,1.19s-.93.41-1.5.41-1.06-.14-1.49-.41c-.43-.28-.77-.67-1.01-1.18-.24-.51-.36-1.1-.37-1.77v-.51c0-.68.12-1.29.36-1.81s.57-.93,1.01-1.2c.43-.28.93-.42,1.49-.42s1.07.14,1.51.41c.43.28.77.67,1,1.2.23.52.35,1.13.35,1.82v.45Zm-.93-.46c0-.84-.17-1.49-.51-1.94-.34-.45-.81-.68-1.42-.68s-1.06.23-1.4.68c-.34.45-.52,1.08-.52,1.88v.52c0,.82.17,1.46.52,1.93.34.47.82.7,1.42.7s1.07-.22,1.41-.66c.33-.44.5-1.07.51-1.9v-.53Z"/></g><g class="cls-5"><path class="cls-27" d="m289.67,117.1h-2.98l-.67,1.86h-.97l2.71-7.11h.82l2.72,7.11h-.96l-.68-1.86Zm-2.7-.77h2.42l-1.21-3.33-1.21,3.33Z"/></g><g class="cls-5"><path class="cls-27" d="m295.34,118.44c-.35.41-.87.62-1.55.62-.56,0-.99-.16-1.29-.49-.29-.33-.44-.81-.45-1.45v-3.44h.9v3.41c0,.8.33,1.2.98,1.2.69,0,1.15-.26,1.38-.77v-3.84h.9v5.28h-.86l-.02-.52Z"/><path class="cls-27" d="m298.81,112.4v1.28h.99v.7h-.99v3.28c0,.21.04.37.13.48.09.11.24.16.45.16.1,0,.25-.02.43-.06v.73c-.24.06-.47.1-.69.1-.4,0-.71-.12-.91-.37s-.31-.59-.31-1.04v-3.28h-.96v-.7h.96v-1.28h.9Z"/><path class="cls-27" d="m301.76,114.32c.4-.49.92-.74,1.56-.74,1.12,0,1.68.63,1.69,1.89v3.49h-.9v-3.5c0-.38-.09-.66-.26-.84s-.44-.27-.8-.27c-.29,0-.55.08-.77.23s-.39.36-.52.62v3.76h-.9v-7.5h.9v2.86Z"/><path class="cls-27" d="m312.9,117.1h-2.98l-.67,1.86h-.97l2.71-7.11h.82l2.72,7.11h-.96l-.68-1.86Zm-2.7-.77h2.42l-1.21-3.33-1.21,3.33Z"/><path class="cls-27" d="m315.14,116.27c0-.82.19-1.48.57-1.96.38-.49.89-.73,1.51-.73s1.15.23,1.51.68l.04-.59h.83v5.16c0,.68-.2,1.22-.61,1.62s-.95.59-1.63.59c-.38,0-.75-.08-1.12-.24-.36-.16-.64-.39-.83-.67l.47-.54c.39.48.86.72,1.42.72.44,0,.78-.12,1.03-.37.25-.25.37-.6.37-1.04v-.45c-.36.42-.85.62-1.48.62s-1.12-.25-1.5-.75c-.38-.5-.57-1.18-.57-2.04Zm.91.1c0,.6.12,1.06.37,1.4.24.34.59.51,1.03.51.57,0,.99-.26,1.25-.78v-2.41c-.28-.5-.69-.76-1.25-.76-.44,0-.78.17-1.03.51-.25.34-.37.85-.37,1.52Z"/><path class="cls-27" d="m323.16,119.06c-.72,0-1.3-.24-1.75-.71-.45-.47-.67-1.1-.67-1.89v-.17c0-.52.1-.99.3-1.4.2-.41.48-.73.84-.97.36-.23.75-.35,1.17-.35.69,0,1.22.23,1.6.68s.57,1.1.57,1.94v.38h-3.58c.01.52.17.94.46,1.26.29.32.66.48,1.11.48.32,0,.59-.07.81-.2.22-.13.42-.3.58-.52l.55.43c-.44.68-1.11,1.02-1.99,1.02Zm-.11-4.74c-.36,0-.67.13-.92.4-.25.26-.4.64-.46,1.12h2.65v-.07c-.03-.46-.15-.81-.37-1.07-.22-.25-.52-.38-.9-.38Z"/><path class="cls-27" d="m327.12,113.68l.03.66c.4-.51.93-.76,1.58-.76,1.12,0,1.68.63,1.69,1.89v3.49h-.9v-3.5c0-.38-.09-.66-.26-.84s-.44-.27-.8-.27c-.29,0-.55.08-.77.23-.22.16-.39.36-.52.62v3.76h-.9v-5.28h.85Z"/><path class="cls-27" d="m333.01,112.4v1.28h.99v.7h-.99v3.28c0,.21.04.37.13.48.09.11.24.16.45.16.1,0,.25-.02.43-.06v.73c-.24.06-.47.1-.69.1-.4,0-.71-.12-.91-.37s-.31-.59-.31-1.04v-3.28h-.96v-.7h.96v-1.28h.9Z"/></g></g><g class="cls-5"><g class="cls-5"><path class="cls-27" d="m284.7,151.26c0,.7-.12,1.3-.35,1.82-.23.52-.57.92-1,1.19s-.93.41-1.5.41-1.06-.14-1.49-.41c-.43-.28-.77-.67-1.01-1.18-.24-.51-.36-1.1-.37-1.77v-.51c0-.68.12-1.29.36-1.81s.57-.93,1.01-1.2c.43-.28.93-.42,1.49-.42s1.07.14,1.51.41c.43.28.77.67,1,1.2.23.52.35,1.13.35,1.82v.45Zm-.93-.46c0-.84-.17-1.49-.51-1.94-.34-.45-.81-.68-1.42-.68s-1.06.23-1.4.68c-.34.45-.52,1.08-.52,1.88v.52c0,.82.17,1.46.52,1.93.34.47.82.7,1.42.7s1.07-.22,1.41-.66c.33-.44.5-1.07.51-1.9v-.53Z"/></g><g class="cls-5"><path class="cls-27" d="m289.93,152.73h-2.98l-.67,1.86h-.97l2.71-7.11h.82l2.72,7.11h-.96l-.68-1.86Zm-2.7-.77h2.42l-1.21-3.33-1.21,3.33Z"/></g><g class="cls-5"><path class="cls-27" d="m295.6,154.07c-.35.41-.87.62-1.55.62-.56,0-.99-.16-1.29-.49-.29-.33-.44-.81-.45-1.45v-3.44h.9v3.41c0,.8.33,1.2.98,1.2.69,0,1.15-.26,1.38-.77v-3.84h.9v5.28h-.86l-.02-.52Z"/><path class="cls-27" d="m299.07,148.03v1.28h.99v.7h-.99v3.28c0,.21.04.37.13.48.09.11.24.16.45.16.1,0,.25-.02.43-.06v.73c-.24.06-.47.1-.69.1-.4,0-.71-.12-.91-.37s-.31-.59-.31-1.04v-3.28h-.96v-.7h.96v-1.28h.9Z"/><path class="cls-27" d="m302.02,149.95c.4-.49.92-.74,1.56-.74,1.12,0,1.68.63,1.69,1.89v3.49h-.9v-3.5c0-.38-.09-.66-.26-.84s-.44-.27-.8-.27c-.29,0-.55.08-.77.23s-.39.36-.52.62v3.76h-.9v-7.5h.9v2.86Z"/><path class="cls-27" d="m310.18,151.81v2.78h-.94v-7.11h2.62c.78,0,1.39.2,1.83.6.44.4.66.92.66,1.58,0,.69-.22,1.22-.65,1.59-.43.37-1.05.56-1.85.56h-1.67Zm0-.77h1.68c.5,0,.88-.12,1.15-.35.27-.24.4-.58.4-1.03,0-.42-.13-.76-.4-1.02-.27-.25-.63-.39-1.1-.4h-1.74v2.79Z"/></g><g class="cls-5"><path class="cls-27" d="m317.96,150.12c-.14-.02-.28-.03-.44-.03-.59,0-.99.25-1.21.76v3.75h-.9v-5.28h.88v.61c.31-.47.73-.71,1.27-.71.18,0,.31.02.4.07v.84Z"/><path class="cls-27" d="m318.36,151.9c0-.52.1-.98.31-1.4.2-.41.49-.73.85-.96.36-.22.78-.34,1.24-.34.72,0,1.3.25,1.75.75s.67,1.16.67,1.99v.06c0,.51-.1.98-.29,1.38-.2.41-.48.73-.84.96s-.79.34-1.26.34c-.72,0-1.3-.25-1.74-.75s-.67-1.16-.67-1.98v-.06Zm.91.11c0,.59.14,1.06.41,1.41.27.35.64.53,1.09.53s.82-.18,1.09-.54c.27-.36.41-.86.41-1.51,0-.58-.14-1.05-.41-1.41-.28-.36-.64-.54-1.1-.54s-.81.18-1.08.53-.41.86-.41,1.52Z"/></g><g class="cls-5"><path class="cls-27" d="m326.07,151.24l1.17-1.93h1.05l-1.73,2.61,1.78,2.67h-1.04l-1.22-1.98-1.22,1.98h-1.05l1.78-2.67-1.73-2.61h1.04l1.16,1.93Z"/><path class="cls-27" d="m330.98,153.27l1.23-3.96h.97l-2.12,6.1c-.33.88-.85,1.32-1.57,1.32h-.17s-.34-.08-.34-.08v-.73l.24.02c.31,0,.54-.06.71-.19s.31-.35.42-.68l.2-.54-1.88-5.22h.99l1.32,3.96Z"/></g></g><rect class="cls-10" x="272.08" y="141.2" width="66.15" height="21.29"/><path class="cls-11" d="m281.41,195.41l61.87-.45c4.47,0,8.1-3.09,8.07-6.79l-.15-21.44"/><g class="cls-5"><g class="cls-5"><path class="cls-27" d="m274.88,36.06h-2.74v7.61h-1.12v-7.61h-2.74v-.92h6.6v.92Z"/></g><g class="cls-5"><path class="cls-27" d="m275.1,40.44c0-.62.12-1.18.37-1.68s.58-.88,1.02-1.15.93-.4,1.49-.4c.86,0,1.56.3,2.09.9s.8,1.39.8,2.38v.08c0,.62-.12,1.17-.35,1.66s-.57.87-1.01,1.15-.94.41-1.51.41c-.86,0-1.56-.3-2.09-.9s-.8-1.39-.8-2.37v-.08Zm1.09.13c0,.7.16,1.27.49,1.69s.76.64,1.31.64.99-.22,1.31-.65.49-1.04.49-1.81c0-.7-.17-1.26-.5-1.69s-.77-.65-1.32-.65-.97.21-1.29.64-.49,1.04-.49,1.83Z"/></g><g class="cls-5"><path class="cls-27" d="m284,40.73l-.68.71v2.23h-1.08v-9h1.08v5.44l.58-.7,1.97-2.09h1.32l-2.47,2.65,2.75,3.69h-1.27l-2.21-2.94Z"/></g><g class="cls-5"><path class="cls-27" d="m290.83,43.79c-.86,0-1.56-.28-2.1-.85s-.81-1.32-.81-2.26v-.2c0-.63.12-1.19.36-1.68s.58-.88,1.01-1.16.9-.42,1.4-.42c.82,0,1.46.27,1.92.81s.69,1.32.69,2.33v.45h-4.29c.02.62.2,1.13.55,1.51s.79.58,1.33.58c.38,0,.71-.08.97-.23s.5-.36.7-.62l.66.52c-.53.82-1.33,1.22-2.39,1.22Zm-.13-5.68c-.44,0-.8.16-1.1.48s-.48.76-.55,1.34h3.18v-.08c-.03-.55-.18-.98-.45-1.28s-.62-.45-1.08-.45Z"/><path class="cls-27" d="m295.58,37.33l.04.8c.48-.61,1.12-.91,1.9-.91,1.34,0,2.02.76,2.03,2.27v4.19h-1.08v-4.2c0-.46-.11-.79-.31-1.01s-.52-.33-.96-.33c-.35,0-.66.09-.93.28s-.47.43-.62.74v4.52h-1.08v-6.34h1.03Z"/><path class="cls-27" d="m310.88,43.67h-1.13v-3.94h-4.3v3.94h-1.12v-8.53h1.12v3.67h4.3v-3.67h1.13v8.53Z"/><path class="cls-27" d="m316.62,43.67c-.06-.12-.11-.35-.15-.67-.5.52-1.11.79-1.8.79-.62,0-1.14-.18-1.54-.53s-.6-.8-.6-1.34c0-.66.25-1.17.75-1.54s1.21-.55,2.12-.55h1.05v-.5c0-.38-.11-.68-.34-.91s-.56-.34-1-.34c-.39,0-.71.1-.97.29s-.39.43-.39.71h-1.09c0-.32.11-.62.34-.92s.53-.53.91-.7.81-.26,1.27-.26c.73,0,1.3.18,1.72.55s.63.87.64,1.51v2.92c0,.58.07,1.04.22,1.39v.09h-1.14Zm-1.8-.83c.34,0,.66-.09.97-.26s.53-.4.66-.69v-1.3h-.85c-1.33,0-1.99.39-1.99,1.17,0,.34.11.61.34.8s.52.29.87.29Z"/><path class="cls-27" d="m320.26,37.33l.04.8c.48-.61,1.12-.91,1.9-.91,1.34,0,2.02.76,2.03,2.27v4.19h-1.08v-4.2c0-.46-.11-.79-.31-1.01s-.52-.33-.96-.33c-.35,0-.66.09-.93.28s-.47.43-.62.74v4.52h-1.08v-6.34h1.03Z"/><path class="cls-27" d="m325.59,40.45c0-.97.23-1.75.69-2.35s1.06-.89,1.81-.89,1.33.25,1.76.76v-3.3h1.08v9h-1l-.05-.68c-.43.53-1.04.8-1.81.8s-1.33-.3-1.8-.9-.69-1.39-.69-2.36v-.08Zm1.08.12c0,.72.15,1.28.45,1.69s.71.61,1.23.61c.69,0,1.19-.31,1.51-.93v-2.91c-.32-.6-.82-.9-1.49-.9-.53,0-.95.21-1.24.62s-.45,1.02-.45,1.82Z"/><path class="cls-27" d="m333.8,43.67h-1.08v-9h1.08v9Z"/><path class="cls-27" d="m338.16,43.79c-.86,0-1.56-.28-2.1-.85s-.81-1.32-.81-2.26v-.2c0-.63.12-1.19.36-1.68s.58-.88,1.01-1.16.9-.42,1.4-.42c.82,0,1.46.27,1.92.81s.69,1.32.69,2.33v.45h-4.29c.02.62.2,1.13.55,1.51s.79.58,1.33.58c.38,0,.71-.08.97-.23s.5-.36.7-.62l.66.52c-.53.82-1.33,1.22-2.39,1.22Zm-.13-5.68c-.44,0-.8.16-1.1.48s-.48.76-.55,1.34h3.18v-.08c-.03-.55-.18-.98-.45-1.28s-.62-.45-1.08-.45Z"/><path class="cls-27" d="m344.95,38.3c-.16-.03-.34-.04-.53-.04-.71,0-1.19.3-1.45.91v4.5h-1.08v-6.34h1.05l.02.73c.36-.57.86-.85,1.51-.85.21,0,.37.03.48.08v1.01Z"/></g></g><rect class="cls-10" x="272.44" y="104.76" width="66.15" height="21.29"/><line class="cls-4" x1="117.12" y1="109.3" x2="259.21" y2="109.3"/><path class="cls-27" d="m259.21,114.8v-9.36c0-.3.24-.54.54-.54.11,0,.22.03.31.1l6.59,4.68c.24.16.31.49.14.74-.04.06-.09.11-.14.14l-6.59,4.68c-.24.17-.58.11-.75-.13-.06-.09-.1-.2-.1-.31Z"/><circle class="cls-26" cx="219.63" cy="109.3" r="21.01"/><path class="cls-7" d="m231.34,103.39c-.3.06-.6.08-.91.08-3.11,0-5.63-2.51-5.64-5.62h0v-.35c-1.19-.83-2.01-2.08-2.29-3.5-8.46-1.4-16.46,4.33-17.85,12.79-1.4,8.46,4.33,16.46,12.79,17.85,8.46,1.4,16.46-4.33,17.85-12.79,0,0,0,0,0,0,.26-1.61.26-3.25,0-4.86-1.84-.46-3.32-1.81-3.95-3.6Z"/><circle class="cls-12" cx="215.91" cy="103.03" r="3.11"/><circle class="cls-12" cx="218.58" cy="118.84" r="2.01"/><circle class="cls-12" cx="221.66" cy="106.61" r="1.1"/><circle class="cls-12" cx="216.69" cy="112.72" r="1.1"/><circle class="cls-12" cx="224.29" cy="113.76" r="2.45"/><circle class="cls-12" cx="208.58" cy="106.61" r="1.54"/><circle class="cls-12" cx="229.99" cy="110.12" r="1.54"/><circle class="cls-12" cx="210.85" cy="113.76" r="2.45"/><path class="cls-12" d="m230.65,103.39c-.3.06-.6.08-.91.08-3.12,0-5.65-2.53-5.65-5.65v-.33c-1.18-.82-2-2.08-2.29-3.49-8.46-1.4-16.46,4.33-17.85,12.79-1.4,8.46,4.33,16.46,12.79,17.85,8.46,1.4,16.46-4.33,17.85-12.79,0,0,0,0,0,0,.14-.84.21-1.68.21-2.53,0-.78-.06-1.56-.17-2.33-1.85-.45-3.34-1.81-3.98-3.6Z"/><g class="cls-1"><path class="cls-12" d="m212.14,118.37c.71,0,1.29.58,1.31,1.29h0"/><path class="cls-12" d="m213.73,110.39c.01-1.2.98-2.17,2.18-2.18"/><path class="cls-12" d="m224.93,120.55c0-1.2.98-2.17,2.18-2.18h0"/><path class="cls-12" d="m220,111.94c.42.43.42,1.12,0,1.55"/><path class="cls-12" d="m219.07,97.3c-.42.42-1.11.42-1.53,0h0"/><path class="cls-12" d="m226.93,108.42c-.42.42-1.11.42-1.53,0h0"/></g><line class="cls-4" x1="117.12" y1="147.97" x2="259.21" y2="147.97"/><path class="cls-27" d="m259.21,153.47v-9.36c0-.3.24-.54.54-.54.11,0,.22.03.31.1l6.59,4.68c.24.16.31.49.14.74-.04.06-.09.11-.14.14l-6.59,4.68c-.24.17-.58.11-.75-.13-.06-.09-.1-.2-.1-.31Z"/><circle class="cls-26" cx="219.63" cy="147.97" r="21.01"/><path class="cls-7" d="m231.34,142.06c-.3.06-.6.08-.91.08-3.11,0-5.63-2.51-5.64-5.62h0v-.33c-1.19-.83-2.01-2.09-2.29-3.51-8.46-1.4-16.46,4.33-17.85,12.79-1.4,8.46,4.33,16.46,12.79,17.85,8.46,1.4,16.46-4.33,17.85-12.79,0,0,0,0,0,0,.26-1.61.26-3.25,0-4.86-1.84-.46-3.32-1.82-3.95-3.61Z"/><circle class="cls-12" cx="215.91" cy="141.7" r="3.11"/><circle class="cls-12" cx="218.58" cy="157.51" r="2.01"/><circle class="cls-12" cx="221.66" cy="145.28" r="1.1"/><circle class="cls-12" cx="216.69" cy="151.39" r="1.1"/><circle class="cls-12" cx="224.29" cy="152.43" r="2.45"/><circle class="cls-12" cx="208.58" cy="145.28" r="1.54"/><circle class="cls-12" cx="229.99" cy="148.79" r="1.54"/><circle class="cls-12" cx="210.85" cy="152.43" r="2.45"/><path class="cls-12" d="m230.65,142.06c-.3.06-.6.08-.91.08-3.12,0-5.65-2.53-5.65-5.65v-.33c-1.19-.83-2.01-2.09-2.29-3.51-8.46-1.4-16.46,4.33-17.85,12.79-1.4,8.46,4.33,16.46,12.79,17.85,8.46,1.4,16.46-4.33,17.85-12.79,0,0,0,0,0,0,.14-.84.21-1.68.21-2.53,0-.78-.06-1.56-.17-2.33-1.84-.45-3.34-1.79-3.98-3.58Z"/><g class="cls-1"><path class="cls-12" d="m212.14,157c.71,0,1.29.58,1.31,1.29h0"/><path class="cls-12" d="m213.73,149.06c.01-1.2.98-2.17,2.18-2.18"/><path class="cls-12" d="m224.93,159.22c0-1.2.98-2.17,2.18-2.18h0"/><path class="cls-12" d="m220,150.61c.42.43.42,1.12,0,1.55"/><path class="cls-12" d="m219.07,136c-.42.42-1.11.42-1.53,0h0"/><path class="cls-12" d="m226.93,147.09c-.42.42-1.11.42-1.53,0h0"/></g><g class="cls-5"><path class="cls-27" d="m518.75,240.43h-2.98l-.67,1.86h-.97l2.71-7.11h.82l2.72,7.11h-.96l-.68-1.86Zm-2.7-.77h2.42l-1.21-3.33-1.21,3.33Z"/><path class="cls-27" d="m522.29,239.51v2.78h-.94v-7.11h2.62c.78,0,1.39.2,1.83.6.44.4.66.92.66,1.58,0,.69-.22,1.22-.65,1.59-.43.37-1.05.56-1.85.56h-1.67Zm0-.77h1.68c.5,0,.88-.12,1.15-.35s.4-.58.4-1.03c0-.42-.13-.76-.4-1.02-.27-.25-.63-.39-1.1-.4h-1.74v2.79Z"/><path class="cls-27" d="m528.66,242.29h-.94v-7.11h.94v7.11Z"/></g><g class="cls-5"><g class="cls-5"><path class="cls-27" d="m38.95,178.96c-.8-.23-1.39-.51-1.76-.85-.37-.34-.55-.75-.55-1.25,0-.56.22-1.02.67-1.39.45-.37,1.03-.55,1.75-.55.49,0,.92.09,1.31.28s.68.45.89.78.31.7.31,1.09h-.94c0-.43-.14-.77-.41-1.02-.27-.25-.66-.37-1.16-.37-.46,0-.82.1-1.08.31s-.39.49-.39.85c0,.29.12.54.37.74s.66.38,1.25.55c.59.17,1.05.35,1.39.55.33.2.58.43.74.7s.24.58.24.94c0,.58-.22,1.04-.67,1.38-.45.35-1.05.52-1.8.52-.49,0-.94-.09-1.37-.28-.42-.19-.75-.44-.98-.77s-.34-.7-.34-1.11h.94c0,.43.16.77.48,1.02.32.25.74.37,1.27.37.49,0,.87-.1,1.14-.3s.4-.48.4-.83-.12-.62-.37-.81c-.24-.19-.69-.38-1.33-.56Z"/></g><g class="cls-5"><path class="cls-27" d="m43.72,179.35v2.78h-.94v-7.11h2.62c.78,0,1.39.2,1.83.6s.66.92.66,1.58c0,.69-.22,1.22-.65,1.59-.43.37-1.05.56-1.85.56h-1.67Zm0-.77h1.68c.5,0,.89-.12,1.15-.35s.4-.58.4-1.03c0-.42-.13-.76-.4-1.02-.27-.25-.63-.39-1.1-.4h-1.74v2.79Z"/></g><g class="cls-5"><path class="cls-27" d="m52.35,180.27h-2.98l-.67,1.86h-.97l2.71-7.11h.82l2.72,7.11h-.96l-.68-1.86Zm-2.7-.77h2.42l-1.21-3.33-1.21,3.33Z"/></g></g><g class="cls-5"><path class="cls-27" d="m101.89,22.38c-.09.75-.37,1.33-.83,1.74-.47.41-1.09.61-1.86.61-.84,0-1.51-.3-2.02-.9s-.76-1.41-.76-2.42v-.68c0-.66.12-1.24.35-1.74s.57-.89,1-1.16c.43-.27.93-.4,1.5-.4.76,0,1.36.21,1.82.63.46.42.72,1,.8,1.75h-.94c-.08-.57-.26-.98-.53-1.23s-.65-.38-1.14-.38c-.6,0-1.07.22-1.41.67-.34.44-.51,1.07-.51,1.89v.69c0,.77.16,1.39.48,1.84s.77.68,1.35.68c.52,0,.92-.12,1.2-.35.28-.24.46-.65.55-1.23h.94Z"/><path class="cls-27" d="m103.17,24.64v-7.11h2.01c.62,0,1.17.14,1.64.41s.84.66,1.1,1.17.39,1.08.39,1.74v.45c0,.67-.13,1.26-.39,1.76s-.63.89-1.11,1.16-1.04.41-1.68.42h-1.97Zm.94-6.34v5.58h.99c.72,0,1.29-.22,1.69-.67.4-.45.6-1.09.6-1.92v-.42c0-.81-.19-1.44-.57-1.88s-.92-.67-1.61-.68h-1.09Z"/><path class="cls-27" d="m115.2,24.64h-.94l-3.58-5.48v5.48h-.94v-7.11h.94l3.59,5.5v-5.5h.93v7.11Z"/></g><path class="cls-22" d="m76.71,158.32h-33.21c-3,.11-5.52-2.22-5.65-5.22v-43.79h39.64"/><path class="cls-22" d="m76.71,158.32h34.76c3,.1,5.51-2.23,5.65-5.22v-43.79h-39.63"/><path class="cls-22" d="m77.49,109.31h39.63v-5.8c-.02-2.87-2.34-5.19-5.21-5.21H43.07c-2.87.01-5.2,2.34-5.21,5.21v5.8h39.63"/><circle class="cls-28" cx="44.04" cy="103.81" r="1.94"/><circle class="cls-28" cx="52.18" cy="103.81" r="1.94"/><circle class="cls-28" cx="60.32" cy="103.81" r="1.94"/><line class="cls-13" x1="59.66" y1="129.32" x2="59.66" y2="139.65"/><rect class="cls-13" x="51.52" y="124.51" width="57.28" height="20.06" rx="3.4" ry="3.4"/><path class="cls-21" d="m18.51,122.55c7.41,0,13.41,6.01,13.4,13.42,0,7.41-6.01,13.41-13.42,13.4-7.39,0-13.38-5.98-13.4-13.37"/><path class="cls-6" d="m26.82,146.64v-2c-.03-2.16-1.78-3.91-3.94-3.94h-7.88c-2.18,0-3.94,1.76-3.94,3.94h0v2"/><circle class="cls-21" cx="18.94" cy="132.85" r="3.94"/><g id="Curity_symbol_grey"><path class="cls-31" d="m315,67.47l-.27.27c-1.35,1.42-3.2,2.27-5.16,2.35-2.62.08-4.81-1.97-4.89-4.58,0-.11,0-.22,0-.33-.13-2.58,1.86-4.78,4.44-4.91.11,0,.22,0,.33,0,1.78.07,3.48.74,4.83,1.9l.26.23,2.65-2.77-.3-.25c-2.17-1.8-4.9-2.79-7.72-2.79-2.87-.06-5.59,1.29-7.26,3.62h-4.8l-.28,2.37h4c-.12.42-.21.85-.27,1.29h-6l-.28,2.37h6.24c.06.44.15.87.27,1.3h-9l-.28,2.58h10.39c1.71,2.37,4.48,3.73,7.4,3.63,3.02-.03,5.92-1.2,8.11-3.28l.28-.26-2.69-2.74Z"/><polygon class="cls-31" points="293.9 63.88 292.16 63.88 291.88 66.24 293.62 66.24 293.9 63.88"/></g></svg>